<?xml version="1.0" encoding="UTF-8" standalone="no"?>
<!DOCTYPE svg PUBLIC "-//W3C//DTD SVG 1.1//EN"
"http://www.w3.org/Graphics/SVG/1.1/DTD/svg11.dtd">


<!-- Page 1 -->
<svg x="0" y="0" width="846" height="502" version="1.1" xmlns="http://www.w3.org/2000/svg" xmlns:xlink="http://www.w3.org/1999/xlink"
style="display: block;margin-left: auto;margin-right: auto;">
<defs>
<clipPath id="c0_1"><path d="M-125.5,-155.5l1099,0l0,412l-1099,0Z" /></clipPath>
<clipPath id="c1_1"><path d="M50.8,204l0.2,0l0,1.3l0.1,0l0,0.6l0.2,0l0,0.7l0.2,0l0,0.4l0.2,0l0,0.4l0.2,0l0,0.3l0.2,0l0,0.4l0.1,0l0,0.4l0.2,0l0,0.3l0.2,0l0.4,0.4l0,0.4l0.2,0l1.2,1.2l0.4,0.2l0.4,0.4l0.7,0.4l0.2,0.1l0.7,0.4l1.1,0.4l0.8,0.2l0.9,0.1l129.8,0.2l0,-0.2l0.9,-0.1l0.7,-0.2l0.6,-0.2l1.8,-0.9l0.2,-0.2l0.4,-0.2l0.5,-0.5l0.4,-0.2l0.3,-0.4l0.2,-0.4l0.6,-0.5l0.2,-0.4l0.1,-0.2l0.2,-0.3l0.2,-0.2l0.4,-0.7l0.5,-1.7l0.2,-0.9L198,161l-0.2,0l0,-0.8l-0.2,0l0,-0.7l-0.2,0l0,-0.4l-0.1,0l0,-0.5l-0.2,0l0,-0.4l-0.2,0l0,-0.3l-0.2,-0.2l-0.2,0l0,-0.4l-0.2,0l0,-0.4l-0.5,-0.5l-0.2,0l0,-0.4l-0.9,-0.9l-0.4,-0.2L194,154.6l-0.4,-0.2l-0.2,-0.2L193,154l-0.1,-0.2l-0.4,-0.2l-0.6,-0.1l-0.3,-0.2L191,153.1l-0.7,-0.2l-0.9,-0.2l-129.8,0l-1.1,0.2l-1.7,0.6L55.7,154l-0.2,0.2l-0.3,0.2l-0.4,0.3l-0.4,0.2L53,156.4l-0.2,0.4l-0.4,0.3l-0.3,0.8L51.9,158l-0.2,0.6l-0.4,0.7l-0.2,0.6L51,160.6l-0.2,1.3ZM-126.8,-155.9l1099.9,0l0,412.4l-1099.9,0Z" /></clipPath>
<clipPath id="c2_1"><path d="M50.8,82.7l0.2,0L51,84l0.1,0l0,0.7l0.2,0l0,0.6l0.2,0l0,0.5l0.2,0l0,0.4l0.2,0l0,0.3l0.2,0l0,0.4l0.1,0l0.2,0.2l0,0.4l0.2,0l0.2,0.1l0,0.4L53,88l0.5,0.6l0,0.3l0.2,0l0.2,0.2l0.4,0.2l0.5,0.5L55.2,90l0.2,0.2l0.3,0.2l0.2,0.2L57,91.1l1.1,0.4l0.7,0.2l1.7,0.1l128,0.2l0,-0.2l1.4,-0.1l0.8,-0.2l1.1,-0.4l0.3,-0.2l0.6,-0.2l0.2,-0.1l0.7,-0.4L194,89.8l0.3,-0.1l1.5,-1.5L196,87.8l0.3,-0.3l1,-1.9l0.3,-1.1l0.2,-0.9L198,39.8l-0.2,0l0,-0.9l-0.2,0l0,-0.6l-0.2,0l0,-0.5l-0.1,0l0,-0.4l-0.2,0l0,-0.4l-0.2,0l0,-0.3l-0.2,0l0,-0.4l-0.2,-0.2l-0.2,0l0,-0.4l-0.1,-0.1l-0.2,0l0,-0.4l-1.7,-1.6L194,33.4L193.6,33l-0.7,-0.4l-0.2,-0.1l-0.6,-0.2l-0.3,-0.2l-1.1,-0.4l-0.8,-0.2l-1.4,-0.1l-128,0l-1.7,0.1l-0.7,0.2L57,32.1l-1.1,0.5l-0.2,0.2L55.4,33l-0.2,0.2l-0.4,0.2l-0.5,0.5l-0.4,0.2l-0.4,0.4l-0.2,0.3l-0.5,0.6l-0.2,0.3l-0.2,0.2l-0.2,0.4l-0.1,0.2l-0.6,1.1l-0.4,1.1L51,39.4l-0.2,1.3ZM-126.8,-155.9l1099.9,0l0,412.4l-1099.9,0Z" /></clipPath>
<clipPath id="c3_1"><path d="M639.8,204.8l0.2,0l0,0.9l0.2,0l0,0.6l0.2,0l0,0.5l0.2,0l0,0.4l0.1,0l0,0.3l0.2,0l0,0.4l0.2,0l0,0.4l0.2,0l0,0.3l0.2,0l0.2,0.2l0,0.4l0.1,0l0.8,0.7l0,0.4l0.2,0l0.3,0.2l0.8,0.7l0.3,0.2l0.2,0.2l1.8,0.9l0.6,0.2l0.7,0.2l1.1,0.1l129.6,0.2l0,-0.2l1.1,-0.1l1.7,-0.6l1.1,-0.5l0.2,-0.2l0.3,-0.2l0.2,-0.2l0.4,-0.2l1.5,-1.4l0.1,-0.4l0.4,-0.4l0.4,-0.7l0.2,-0.2l0.3,-0.7l0.4,-1.1l0.2,-0.8l0.2,-1.1L787,161.7l-0.1,0l0,-1.1l-0.2,0l0,-0.7l-0.2,0l0,-0.6l-0.2,0l0,-0.5l-0.2,0l0,-0.4l-0.2,0l0,-0.4l-0.1,0l0,-0.3l-0.2,-0.2l-0.2,0l0,-0.4l-0.2,-0.2l-0.2,0l0,-0.3l-1.8,-1.9l-0.4,-0.1l-0.2,-0.2l-0.3,-0.2L782.1,154L781,153.5l-0.6,-0.2l-0.3,-0.2l-0.8,-0.2l-0.9,-0.2l-130,0l-0.9,0.2l-0.7,0.2l-0.6,0.2l-1.8,0.9l-0.2,0.2l-0.3,0.2l-0.8,0.7l-0.3,0.2l-0.4,0.3l-0.2,0.4l-0.5,0.6l-0.2,0.3l-0.2,0.2l-0.2,0.4l-0.2,0.2l-0.2,0.3l-0.1,0.6l-0.2,0.3l-0.4,1.1l-0.2,0.9ZM-126.8,-155.9l1099.9,0l0,412.4l-1099.9,0Z" /></clipPath>
<clipPath id="c4_1"><path d="M639.8,83.4l0.2,0l0,0.9l0.2,0l0,0.8l0.2,0l0,0.3l0.2,0l0,0.6l0.1,0l0,0.4l0.2,0l0,0.3l0.2,0l0,0.4l0.2,0l0.2,0.2l0,0.3l0.2,0l0.1,0.2l0,0.4l0.2,0l1.5,1.5l0.4,0.1l0.3,0.4l1.9,0.9l1.1,0.4l0.7,0.2l1.6,0.1L777.3,92l0,-0.2L779,91.7l0.7,-0.2l1.1,-0.4l1.5,-0.7l0.2,-0.2L782.8,90l0.6,-0.5l0.3,-0.2l0.8,-0.7l0.2,-0.4L785,87.8l0.2,-0.3l0.2,-0.2l0.7,-1.5l0.6,-1.6l0.2,-1.1L787,40.3l-0.1,0l0,-1.1l-0.2,0l0,-0.5l-0.2,0l0,-0.6l-0.2,0l0,-0.5l-0.2,0l0,-0.4l-0.2,0l0,-0.4l-0.1,0l0,-0.3l-0.2,0l0,-0.4l-0.2,-0.2l-0.2,0l0,-0.3L784.7,35l-0.2,0l0,-0.4l-0.8,-0.7l-0.3,-0.2l-0.6,-0.5l-0.7,-0.4l-0.2,-0.2l-1.1,-0.5l-1.1,-0.4L779,31.5l-1.7,-0.1l-127.8,0l-1.6,0.1l-0.7,0.2l-1.1,0.4l-1.5,0.7L644.4,33L644,33.2l-0.1,0.2l-0.4,0.2L642,35l-0.2,0.4l-0.3,0.3l-0.2,0.4l-0.2,0.2l-0.5,1.1l-0.2,0.5l-0.2,0.4L640,39l-0.2,1ZM-126.8,-155.9l1099.9,0l0,412.4l-1099.9,0Z" /></clipPath>
<clipPath id="c5_1"><path d="M-125.5,256.5l1099,0l0,412l-1099,0Z" /></clipPath>
<clipPath id="c6_1"><path d="M50.8,463.8l0.2,0l0,1.3l0.1,0l0,0.8l0.2,0l0,0.5l0.2,0l0,0.6l0.2,0l0,0.3l0.2,0l0,0.4l0.2,0l0,0.4l0.1,0l0.2,0.1l0,0.4l0.2,0l0,0.4l0.2,0l0.7,0.7l0,0.4l0.2,0l0.2,0.2l0.4,0.1l0.5,0.6l0.4,0.2l0.2,0.2l0.3,0.1l0.2,0.2l1.1,0.6l1.1,0.3l0.7,0.2l1.3,0.2l128.7,0.2l0,-0.2l1.3,-0.2l0.7,-0.2l1.1,-0.3l0.8,-0.4l0.2,-0.2l0.7,-0.3L194,471l0.3,-0.2l1.5,-1.5L196,469l0.3,-0.4l1,-1.8l0.3,-1.1l0.2,-0.9l0.2,-44l-0.2,0l0,-0.8l-0.2,0l0,-0.7l-0.2,0l0,-0.6l-0.1,0l0,-0.3l-0.2,0l0,-0.4l-0.2,0l0,-0.4l-0.2,0l0,-0.3l-0.2,-0.2l-0.2,0l0,-0.4L196,416.4l-0.2,0l0,-0.4l-1.3,-1.3l-0.4,-0.2l-0.3,-0.3L193.4,414l-0.2,-0.2l-1.4,-0.7l-1.1,-0.4l-1,-0.2l-1.8,-0.2l-127,0L59,412.5l-0.7,0.2l-1.1,0.4L55.4,414L55,414.3l-0.4,0.2l-1.8,1.9l-0.2,0.3l-0.2,0.2l-0.3,0.7l-0.2,0.2l-0.2,0.4l-0.2,0.5l-0.2,0.4l-0.2,0.6L51,420.4l-0.2,1.3ZM-126.8,256.5l1099.9,0l0,412.5l-1099.9,0Z" /></clipPath>
<clipPath id="c7_1"><path d="M639.8,334.8l0.2,0l0,0.9l0.2,0l0,0.5l0.2,0l0,0.6l0.2,0l0,0.5l0.1,0l0,0.4l0.2,0l0,0.4l0.2,0l0.2,0.1l0,0.4l0.2,0l0,0.4l0.2,0l0.3,0.3l0,0.4l0.2,0l0.9,0.9l0.4,0.2l0.5,0.6l0.8,0.3l0.2,0.2l0.7,0.4l0.5,0.2l0.4,0.2l1.5,0.3l130.7,0.2l0,-0.2l0.7,-0.2l1.1,-0.3l1.9,-1l0.1,-0.1l0.4,-0.2l1.8,-1.9L785,339l0.2,-0.2l0.2,-0.4l0.2,-0.2l0.5,-1.1l0.4,-1l0.2,-0.8l0.2,-1.1L787,291.5l-0.1,0l0,-1.1l-0.2,0l0,-0.7l-0.2,0l0,-0.4l-0.2,0l0,-0.5l-0.2,0l0,-0.4l-0.2,0l0,-0.4l-0.1,0l0,-0.3l-0.2,0l0,-0.4l-0.2,-0.2l-0.2,0l0,-0.4l-0.4,-0.3l-0.1,0l0,-0.4l-1.1,-1.1l-0.4,-0.2l-0.4,-0.4l-0.3,-0.1L782.3,284l-1.5,-0.8l-1.6,-0.5l-1.3,-0.2l-129.1,0l-1.1,0.2l-0.7,0.2l-1.1,0.3l-0.8,0.4l-0.1,0.2l-0.8,0.4l-0.3,0.3l-0.4,0.2l-1.7,1.7l-0.1,0.3l-0.2,0.2l-0.2,0.4l-0.2,0.2l-0.5,1.1l-0.2,0.5l-0.2,0.4l-0.2,0.7l-0.2,0.9ZM-126.8,256.5l1099.9,0l0,412.5l-1099.9,0Z" /></clipPath>
<clipPath id="c8_1"><path d="M50.8,334l0.2,0l0,1.3l0.1,0l0,0.8l0.2,0l0,0.5l0.2,0l0,0.4l0.2,0l0,0.5l0.2,0l0,0.4l0.2,0l0.1,0.2l0,0.3l0.2,0l0,0.4l0.2,0l0.2,0.2l0,0.3l0.2,0l1.6,1.7l0.4,0.2l0.4,0.3l1.8,1l1.1,0.3l0.9,0.2l130.5,0.2l0,-0.2l1.5,-0.3l0.6,-0.2l1.4,-0.8l0.2,-0.2l0.4,-0.1l0.3,-0.4l0.4,-0.2l1.1,-1.1l0.2,-0.4l0.4,-0.3l0.1,-0.4l0.2,-0.2l0.8,-1.4l0.1,-0.6l0.4,-1.4L198,291l-0.2,0l0,-1l-0.2,0l0,-0.5l-0.2,0l0,-0.6l-0.1,0l0,-0.3l-0.2,0l0,-0.4l-0.2,0l0,-0.4l-0.2,0l0,-0.3l-0.2,0l0,-0.4l-0.3,-0.4l-0.2,0l0,-0.3l-1.9,-1.9l-0.3,-0.2l-0.2,-0.1L193.2,284L193,283.8l-1.1,-0.6l-1.1,-0.3l-0.7,-0.2L189,282.5l-129.1,0l-1.1,0.2l-0.7,0.2L57,283.2L55.5,284l-0.1,0.2L55,284.3l-0.7,0.8l-0.4,0.2l-0.4,0.3L53.3,286l-0.7,0.7l-0.4,0.8l-0.1,0.2l-0.6,1.1l-0.4,1.1L51,290.6l-0.2,1.3ZM-126.8,256.5l1099.9,0l0,412.5l-1099.9,0Z" /></clipPath>
<clipPath id="c9_1"><path d="M639.8,464.6l0.2,0l0,0.9l0.2,0l0,0.7l0.2,0l0,0.4l0.2,0l0,0.5l0.1,0l0,0.4l0.2,0l0,0.4l0.2,0l0,0.3l0.2,0l0.2,0.2l0,0.4l0.2,0l0.1,0.2l0,0.3l0.2,0l1.5,1.5l0.4,0.2l0.3,0.4l2.2,1.1l0.8,0.1l0.5,0.2L649,473l128.7,0.2l0,-0.2l1.3,-0.2l0.7,-0.2l1.1,-0.3l1.5,-0.8l0.2,-0.1l0.3,-0.2l0.6,-0.6l0.3,-0.2l0.8,-0.7l0.2,-0.4L785,469l0.2,-0.4l0.2,-0.2l0.7,-1.4l0.2,-0.6l0.2,-0.4l0.2,-0.7l0.2,-1.1L787,421.5l-0.1,0l0,-1.1l-0.2,0l0,-0.7l-0.2,0l0,-0.6l-0.2,0l0,-0.5l-0.2,0l0,-0.4l-0.2,0l0,-0.4l-0.1,0l0,-0.3l-0.2,-0.2l-0.2,0l0,-0.4l-0.2,-0.2l-0.2,0l0,-0.3l-2,-2.1l-0.4,-0.1L782.5,414l-0.4,-0.2l-0.2,-0.2l-0.4,-0.2L781,413.2l-0.4,-0.1l-1.1,-0.4l-0.7,-0.2L777,412.3l-127.1,0l-1.8,0.2l-0.9,0.2l-0.6,0.2l-0.4,0.2l-0.5,0.1l-0.7,0.4l-0.2,0.2l-0.8,0.4l-0.3,0.3l-0.4,0.2L642,416l-0.2,0.4l-0.3,0.3l-0.4,0.8l-0.2,0.1l-0.3,0.8L640,420l-0.2,0.9ZM-126.8,256.5l1099.9,0l0,412.5l-1099.9,0Z" /></clipPath>

<style type="text/css"><![CDATA[

.g3_1{
}
.g2_1{
fill: #FDEADA;
}
.g1_1{
fill: #FFFFFF;
}

.s1_1{
font-size: 21.45px;
font-family: OYOIZF-Times-Roman1;
fill: #000000;
}

]]></style>

</defs>
<path d="M0,0
L0,502
L846,502
L846,0 Z " 
fill="#FFFFFF" stroke="none" />
<g clip-path="url(#c0_1)">
<path fill-rule="evenodd" d="M-126,-156l0,824l1099,0l0,-824l-1099,0Z" class="g1_1" />
</g>
<path fill-rule="evenodd" d="M336.6,31.4c0,-14.3,36.8,-25.9,82.3,-25.9c45.3,0,82.1,11.6,82.1,25.9c0,14.4,-36.8,26,-82.1,26c-45.5,0,-82.3,-11.6,-82.3,-26Z" class="g2_1" />
<path d="M334.9,31.5l0,-0.1l0.2,-1.5l0,-0.2l0.4,-1.3c0,-0.2,0,-0.2,0,-0.2L336,26.9l0.8,-1.4L337.9,24l1.3,-1.3l1.2,-1.3l1.7,-1.2l1.6,-1.3l1.9,-1.1l2.2,-1.1L350,15.6l2.2,-1.1l2.5,-0.9l2.6,-1.1l2.8,-1L363,10.8l3.1,-0.9l3.1,-0.7l3.3,-0.8l3.3,-0.7l3.5,-0.6L383,6.4l3.6,-0.3l3.7,-0.6l3.9,-0.4l4,-0.3L402,4.4l4.3,-0.2l4,-0.2l8.4,-0.1L427.3,4l4.1,0.2l4.2,0.2l3.8,0.4l4.1,0.3l3.8,0.4L451,6.1l3.7,0.3l3.6,0.7l3.5,0.6l3.3,0.7l3.3,0.8l3.1,0.7l3.1,0.7l2.8,0.9l2.7,1l2.8,0.9l2.4,1.1l2.4,1.1l2.2,0.9l2,1.3l2,1.1l1.6,1.1l1.5,1.3l1.5,1.2l1.3,1.3l0.9,1.5l0.9,1.5l0.5,1.4l0,0.2l0.4,1.3c0,0.2,0,0.2,0,0.2l0.2,1.5l0,0.1l-0.2,1.3c0,0.2,0,0.2,0,0.4l-0.4,1.3l0,0.1l-0.5,1.3l-0.7,1.5l-1.1,1.5l-1.3,1.2l-1.3,1.3l-1.7,1.3L493.9,44l-1.8,1.1l-2.2,1.1l-2.2,1.1l-2.2,1.1l-2.6,0.9l-2.6,0.9l-2.7,0.9l-3,1L471.5,53l-3.1,0.7l-3.3,0.7l-3.3,0.8l-3.5,0.5l-3.6,0.6L451,56.8l-3.7,0.6l-3.8,0.4l-4.1,0.3l-3.8,0.2l-4.2,0.4l-4.1,0.2l-16.8,0l-4.2,-0.2l-4.1,-0.4l-4,-0.2l-4,-0.3l-3.9,-0.4l-3.7,-0.6L383,56.3l-3.7,-0.6l-3.5,-0.5l-3.3,-0.8l-3.3,-0.7L366.1,53L363,52.1l-2.8,-0.8l-2.7,-0.9l-2.8,-1.1l-2.3,-0.9L350,47.3l-2.2,-1.1l-2,-1.1L343.7,44l-1.6,-1.3l-1.5,-1.1l-1.4,-1.3l-1.1,-1.4L337,37.6l-0.8,-1.5l-0.7,-1.5l0,-0.1l-0.4,-1.3c0,-0.2,0,-0.2,0,-0.4Zm3.2,1.1l0,-0.1l0.3,1.2l0,-0.1l0.4,1l0.5,1.1l1,1.1l0.9,1.1l1.3,1.3l1.4,1.1l1.5,1.1l1.8,1.1l1.9,1l2.2,1.1l2.2,0.9l2.3,1.1l2.6,0.9l2.6,0.9l2.9,0.7l2.9,0.9l3.2,0.8l3.1,0.7l3.3,0.6l3.5,0.7l3.4,0.5l3.7,0.6l3.7,0.4l3.8,0.3l3.9,0.4l4,0.4l3.9,0.2l4.2,0.1l8.2,0.2l8.5,-0.2l4,-0.1l4,-0.2L439.3,55l3.8,-0.4L447,54.3l3.6,-0.4l3.7,-0.6l3.5,-0.5l3.5,-0.7l3.3,-0.6l3.1,-0.7L470.8,50l2.9,-0.9l2.8,-0.7l2.7,-0.9l2.6,-0.9l2.4,-1.1l2.2,-0.9l2,-1l2,-1.1l1.7,-1.1l1.6,-1.1l1.5,-1.1l1.1,-1.1L497.4,37l0.7,-1.1l0.7,-1.1l0.4,-1.2l0,0.1l0.4,-1.2l0,0.1l0,-1.2l0,0.1l0,-1.2l0,0.1l-0.4,-1.2l0,0.1l-0.4,-1.1l-0.5,-1.1L497.4,26l-0.9,-1.3l-1.3,-1.1l-1.5,-1.1l-1.5,-1.1l-1.8,-1.1l-1.8,-1l-2.2,-1l-2.2,-1.1l-2.4,-0.9l-2.6,-0.9l-2.5,-0.9l-3,-0.7l-2.9,-1l-3.1,-0.7l-3.1,-0.7l-3.3,-0.8l-3.5,-0.5L454.3,9.5L450.6,9L447,8.6L443.1,8.1L439.3,7.7L435.4,7.5l-4,-0.2L427.2,7.1L418.9,7l-8.4,0.1l-4.1,0.2l-4,0.2l-4,0.2l-3.9,0.4l-3.8,0.5L387,9l-3.7,0.5l-3.4,0.6l-3.5,0.5l-3.3,0.8L370,12.1l-3.2,0.7l-2.9,1l-2.7,0.7l-2.8,0.9l-2.6,0.9l-2.3,0.9l-2.2,1.1l-2.1,1l-2,1l-1.6,1.1l-1.7,1.1l-1.3,1.1l-1.2,1.1l-1.1,1.1l-0.8,1.1l-0.7,1.2l-0.4,1.2l0,-0.1l-0.3,1.2l0,-0.1l0,1.2l0,-0.1Z" class="g3_1" />
<text 
x="373" 
y="39" 
textLength="89" 
class="s1_1"
>Convexity</text>

<path fill-rule="evenodd" d="M336.8,117.9C336.8,103.6,373.4,92,418.9,92c45.5,0,82.1,11.6,82.1,25.9c0,14.3,-36.6,26,-82.1,26c-45.5,0,-82.1,-11.7,-82.1,-26Z" class="g2_1" />
<path d="M335.1,118.1c0,-0.2,0,-0.2,0,-0.2l0.2,-1.5l0,-0.2l0.4,-1.2c0,-0.2,0,-0.2,0,-0.2l0.5,-1.3L337,112l1.1,-1.4l1.2,-1.3l1.3,-1.5l1.7,-1.1l1.6,-1.3l1.9,-1.1L348,103l2.2,-0.9l2.2,-1.1l2.5,-1.1L357.5,99l2.7,-0.9l3,-0.9l3.1,-0.8l3.1,-0.7L372.7,95L376,94.2l3.5,-0.7L383,92.9l3.6,-0.5L390.5,92l3.8,-0.3l3.9,-0.4l4,-0.4l4.1,-0.2l4.2,-0.1l8.4,-0.2l8.4,0.2l4.3,0.1l4,0.2l4,0.4l3.9,0.4l3.8,0.3l3.9,0.4l3.6,0.5l3.5,0.6l3.5,0.7l3.3,0.8l3.3,0.7l3.1,0.7l3.1,0.8l3,0.9l2.7,0.9l2.6,0.9l2.4,1.1l2.4,0.9l2.2,1.1l2,1.1l2,1.3l1.6,1.1l1.5,1.3l1.5,1.3l1.3,1.3l0.9,1.4l0.9,1.5l0.5,1.5l0,0.2l0.4,1.2l0,0.2l0.2,1.5l0,0.2l-0.2,1.2c0,0.2,0,0.2,0,0.4l-0.4,1.3l0,0.2l-0.5,1.3l-0.7,1.4l-1.1,1.5l-1.3,1.3l-1.3,1.3l-1.7,1.3l-1.6,1.1l-1.8,1.2l-2.1,1.1l-2.2,1.1l-2.3,1.1l-2.6,0.9l-2.6,1l-2.7,0.9l-3,0.9l-3.1,0.9l-3.1,0.8l-3.1,0.7l-3.5,0.7l-3.5,0.6l-3.5,0.5l-3.6,0.6l-3.9,0.5l-3.8,0.4l-3.9,0.4l-4,0.1l-4,0.4l-4.3,0l-8.4,0.2l-8.4,-0.2l-4.2,0l-4.1,-0.4l-4,-0.1l-3.9,-0.4l-3.8,-0.4l-3.9,-0.5L383,142.8l-3.5,-0.5L376,141.7L372.7,141l-3.3,-0.7l-3.1,-0.8l-3.1,-0.9l-2.8,-0.9l-2.9,-0.9l-2.6,-1l-2.4,-0.9l-2.3,-1.1L348,132.7l-2.1,-1.1l-2,-1.1l-1.6,-1.2L340.8,128l-1.5,-1.3l-1.1,-1.3l-1.1,-1.3l-0.7,-1.5l-0.7,-1.4c0,-0.2,0,-0.2,0,-0.2l-0.4,-1.3c0,-0.2,0,-0.2,0,-0.4Zm3.1,1.1l0,-0.2l0.4,1.3l0,-0.2l0.4,1.1l0.5,1.1l0.9,1.1l1,1.1l1.2,1.1l1.5,1.3l1.5,1.1l1.8,0.9l1.8,1.1l2.2,1.1l2.2,0.9l2.4,1.1l2.6,0.9l2.6,0.7l2.9,1l2.9,0.7l3.1,0.9l3.2,0.8l3.3,0.5l3.4,0.7l3.5,0.6l3.5,0.5l3.9,0.4l3.6,0.4l4.1,0.3l3.8,0.4l4,0.2l4.1,0.2l8.4,0.2l8.4,-0.2l4.1,-0.2l4,-0.2l3.9,-0.4l4,-0.3l3.7,-0.4l3.6,-0.4l3.7,-0.5l3.5,-0.6l3.5,-0.7l3.3,-0.5l3.1,-0.8l3.1,-0.9l2.9,-0.7l3,-0.8l2.5,-0.9l2.6,-0.9l2.4,-1.1l2.2,-0.9l2.2,-1.1l1.8,-0.9l1.7,-1.1l1.6,-1.1l1.5,-1.1l1.1,-1.1l1.1,-1.1l0.7,-1.1l0.7,-1.1l0.4,-1.3l0,0.2l0.4,-1.3l0,0.2l0,-1.3l0,0.2l0,-1.3l0,0.2l-0.4,-1.3l0,0.2l-0.4,-1.1l-0.5,-1.1l-0.9,-1.3l-0.9,-1.1l-1.3,-1.1l-1.5,-1.1L492.2,108l-1.8,-1.1l-1.8,-1.1l-2,-0.9l-2.4,-1.1l-2.4,-0.9l-2.6,-1L476.7,101l-3,-0.9l-2.9,-0.7l-2.9,-0.8l-3.3,-0.7l-3.3,-0.7l-3.5,-0.6l-3.5,-0.5l-3.5,-0.6L447,95.1l-3.7,-0.5l-4,-0.4L435.4,94l-4,-0.1l-4.1,-0.2l-8.4,-0.2l-8.2,0.2l-4.3,0.2l-4,0.1l-3.8,0.2l-3.9,0.4L390.9,95l-3.7,0.5l-3.7,0.6L380,96.6l-3.4,0.6l-3.3,0.7l-3.2,0.7L367,99.4l-2.9,0.7l-2.8,0.9l-2.7,0.9l-2.6,1l-2.4,0.9l-2.2,1.1l-2,0.9l-2,1.1l-1.6,1.1l-1.7,1.1l-1.5,1.1l-1.1,1.1l-1.1,1.1l-0.7,1.1l-0.7,1.1l-0.4,1.3l0,-0.2l-0.4,1.3l0,-0.2l0,1.3l0,-0.2Z" class="g3_1" />
<text 
x="358" 
y="125" 
textLength="121" 
class="s1_1"
>y-Distribution</text>

<path fill-rule="evenodd" d="M336.6,204.6c0,-14.3,36.8,-26,82.3,-26c45.3,0,82.1,11.7,82.1,26c0,14.3,-36.8,26,-82.1,26c-45.5,0,-82.3,-11.7,-82.3,-26Z" class="g2_1" />
<path d="M334.9,204.8c0,-0.2,0,-0.2,0,-0.2l0.2,-1.5l0,-0.2l0.4,-1.2c0,-0.2,0,-0.2,0,-0.2L336,200l0.8,-1.3l1.1,-1.4l1.3,-1.5l1.2,-1.3l1.7,-1.1l1.6,-1.3l1.9,-1.3l2.2,-1.1l2.2,-1l2.2,-1l2.5,-1.1l2.6,-0.9l2.8,-0.9l2.9,-0.9l3.1,-0.7l3.1,-0.8l3.3,-0.7l3.3,-0.7l3.5,-0.8l3.7,-0.5l3.6,-0.6l3.7,-0.3l3.9,-0.4l4,-0.4l3.8,-0.4l4.3,-0.1l4,-0.2l8.4,-0.2l8.6,0.2l4.1,0.2l4.2,0.1l3.8,0.4l4.1,0.4l3.8,0.4l3.7,0.3l3.7,0.6l3.6,0.5l3.5,0.8l3.3,0.5l3.3,0.7l3.1,1l3.1,0.7l2.8,0.9l2.7,0.9l2.8,0.9l2.4,1.1l2.4,1l2.2,1l2,1.1l2,1.3l1.6,1.1l1.5,1.3l1.5,1.3l1.3,1.3l0.9,1.4l0.9,1.5l0.5,1.5l0,0.2l0.4,1.2l0,0.2l0.2,1.3c0,0.2,0,0.2,0,0.4l-0.2,1.3c0,0.2,0,0.2,0,0.2l-0.4,1.4l0,0.2l-0.5,1.3l-0.7,1.5l-1.1,1.2l-1.3,1.5l-1.3,1.3l-1.7,1.3l-1.6,1.1l-1.8,1.3l-2.2,1.1l-2.2,1.1l-2.2,1.1l-2.6,0.9l-2.6,0.9l-2.7,0.9l-3,0.9l-3.1,0.9l-3.1,0.8l-3.3,0.7l-3.3,0.7l-3.5,0.6l-3.6,0.5l-3.7,0.6l-3.7,0.3l-3.8,0.6l-4.1,0.4l-3.8,0.1l-4.2,0.4l-4.1,0l-8.4,0.2l-8.4,-0.2l-4.2,0l-4.1,-0.4l-4,-0.1l-4,-0.4l-3.9,-0.4l-3.7,-0.5L383,229.5L379.3,229l-3.5,-0.6l-3.3,-0.7L369.2,227l-3.1,-0.8L363,225.3l-2.8,-0.9l-2.7,-0.9l-2.8,-0.9l-2.3,-0.9L350,220.6l-2.2,-1.1l-2,-1.1l-2.1,-1.1L342.1,216l-1.5,-1.3l-1.4,-1.3l-1.1,-1.3L337,210.8l-0.8,-1.4l-0.7,-1.5c0,-0.2,0,-0.2,0,-0.2l-0.4,-1.4l0,-0.2Zm3.2,1.1l0,-0.4l0.3,1.5l0,-0.2l0.4,1.1l0.5,1.1l1,1.1l0.9,1.1l1.3,1.1l1.4,1.1l1.5,1.1l1.8,1.1l1.9,1.1l2.2,1.1l2.2,0.9l2.3,0.9l2.6,1l2.6,0.9l2.9,0.9l2.9,0.7L370,224l3.1,0.6l3.3,0.7l3.5,0.6l3.4,0.7L387,227l3.7,0.5l3.8,0.4l3.9,0.3l4,0.4l3.9,0.2l4.2,0.2l8.2,0.2l8.5,-0.2l4,-0.2l4,-0.2l4.1,-0.4l3.8,-0.3l3.9,-0.4l3.6,-0.5l3.7,-0.4l3.5,-0.6l3.5,-0.7l3.3,-0.5l3.1,-0.8l3.1,-0.9l2.9,-0.7l2.8,-0.9l2.7,-0.8l2.6,-0.9l2.4,-1.1l2.2,-0.9l2,-1.1l2,-0.9l1.7,-1.1l1.6,-1.1l1.5,-1.1l1.1,-1.1l1.1,-1.1l0.7,-1.1l0.7,-1.1l0.4,-1.3l0,0.2l0.4,-1.5l0,0.4l0,-1.3l0,0.2l0,-1.3l0,0.2l-0.4,-1.3l0,0.2l-0.4,-1.1l-0.5,-1.3l-0.9,-1.1L496.5,198l-1.3,-1.1l-1.5,-1.1l-1.5,-1.1l-1.8,-1.1l-1.8,-1.1l-2.2,-0.9l-2.2,-1.1l-2.4,-0.9l-2.6,-0.9l-2.5,-1l-3,-0.9l-2.9,-0.7l-3.1,-0.7l-3.1,-0.8l-3.3,-0.7l-3.5,-0.6l-3.5,-0.5l-3.7,-0.6L447,181.7l-3.9,-0.4L439.3,181l-3.9,-0.2l-4,-0.4l-4.2,0l-8.3,-0.2l-8.4,0.2l-4.1,0l-4,0.4l-4,0.2l-3.9,0.3l-3.8,0.4l-3.7,0.5l-3.7,0.6l-3.4,0.5l-3.5,0.6l-3.3,0.7l-3.1,0.8l-3.2,0.7l-2.9,0.7l-2.7,0.9l-2.8,1l-2.6,0.9l-2.3,0.9l-2.2,0.9l-2.1,1.1l-2,1.1l-1.6,1.1l-1.7,1.1l-1.3,1.1l-1.2,1.1l-1.1,1.1l-0.8,1.1l-0.7,1.1l-0.4,1.3l0,-0.2l-0.3,1.3l0,-0.4l0,1.5l0,-0.2Z" class="g3_1" />
<text 
x="382" 
y="212" 
textLength="72" 
class="s1_1"
>Levelset</text>

<g clip-path="url(#c1_1)">
<path fill-rule="evenodd" d="M50.8,162.8c0,-5.7,4.6,-10.1,10.1,-10.1l127,0c5.7,0,10.1,4.4,10.1,10.1l0,40.3c0,5.5,-4.4,10.1,-10.1,10.1l-127,0c-5.5,0,-10.1,-4.6,-10.1,-10.1Z" class="g1_1" />
<path d="M50.2,162.8l0,-1.1l0.2,-1.1l0.4,-0.9l0.3,-1.1l0.4,-0.9l0.6,-0.9L52.6,156l0.7,-0.7l0.8,-0.7L55,154l0.7,-0.5l0.9,-0.6l1.1,-0.4l1,-0.1l1.1,-0.2l129.2,0l1.1,0.2l1.1,0.1l0.9,0.4l0.9,0.6l1,0.5l0.7,0.6l0.7,0.7l0.8,0.7l0.5,0.8l0.6,0.9l0.5,0.9l0.4,0.9l0.2,1.1l0.1,1.1l0,42.5l-0.1,1.1l-0.2,1l-0.4,1.1l-0.4,0.9l-0.5,0.7l-0.7,0.9l-0.6,0.8l-0.9,0.7l-0.7,0.5l-1,0.6l-0.9,0.5l-0.9,0.2l-1.1,0.4l-1.1,0.2l-129.2,0l-1,-0.2l-1.1,-0.2L56.8,213l-0.9,-0.5L55,211.9l-0.9,-0.5l-0.8,-0.7l-0.7,-0.8l-0.5,-0.7l-0.6,-0.9l-0.4,-0.9l-0.3,-1.1l-0.4,-1l-0.2,-1.1l0,-1.1Zm1.1,40.3l0.2,0.9l0,1l0.4,0.9l0.2,0.9l0.5,0.9l0.4,0.8l0.5,0.7l0.6,0.7l0.7,0.6l0.7,0.5l0.8,0.6l0.9,0.3l0.9,0.4l0.9,0.2l0.9,0.2l129.1,0l0.9,-0.2l0.9,-0.2l0.8,-0.4l0.9,-0.3l0.7,-0.6l0.8,-0.5l0.7,-0.6l0.5,-0.7l0.6,-0.7l0.5,-0.8l0.4,-0.9l0.4,-0.7l0.2,-1l0.1,-1.1l0,-42.1L197.3,161l-0.2,-0.9l-0.4,-1l-0.4,-0.9l-0.5,-0.7l-0.6,-0.7L194.7,156L194,155.5l-0.8,-0.6l-0.7,-0.5L191.8,154l-1,-0.4l-0.9,-0.1L189,153.3l-129.1,0L59,153.5l-0.9,0.1L57.2,154l-0.7,0.4l-1,0.5l-0.7,0.6L54.3,156l-0.8,0.8L53,157.5l-0.4,0.7L52.1,159l-0.2,0.9l-0.4,0.9l0,0.9l-0.2,1.1Z" class="g3_1" />
</g>
<path fill-rule="evenodd" d="M50.8,162.8c0,-5.7,4.6,-10.1,10.1,-10.1l127,0c5.7,0,10.1,4.4,10.1,10.1l0,40.3c0,5.5,-4.4,10.1,-10.1,10.1l-127,0c-5.5,0,-10.1,-4.6,-10.1,-10.1Z" class="g1_1" />
<path d="M50.2,162.8l0,-1.1l0.2,-1.1l0.4,-0.9l0.3,-1.1l0.4,-0.9l0.6,-0.9L52.6,156l0.7,-0.7l0.8,-0.7L55,154l0.7,-0.5l0.9,-0.6l1.1,-0.4l1,-0.1l1.1,-0.2l129.2,0l1.1,0.2l1.1,0.1l0.9,0.4l0.9,0.6l1,0.5l0.7,0.6l0.7,0.7l0.8,0.7l0.5,0.8l0.6,0.9l0.5,0.9l0.4,0.9l0.2,1.1l0.1,1.1l0,42.5l-0.1,1.1l-0.2,1l-0.4,1.1l-0.4,0.9l-0.5,0.7l-0.7,0.9l-0.6,0.8l-0.9,0.7l-0.7,0.5l-1,0.6l-0.9,0.5l-0.9,0.2l-1.1,0.4l-1.1,0.2l-129.2,0l-1,-0.2l-1.1,-0.2L56.8,213l-0.9,-0.5L55,211.9l-0.9,-0.5l-0.8,-0.7l-0.7,-0.8l-0.5,-0.7l-0.6,-0.9l-0.4,-0.9l-0.3,-1.1l-0.4,-1l-0.2,-1.1l0,-1.1Zm1.1,40.3l0.2,0.9l0,1l0.4,0.9l0.2,0.9l0.5,0.9l0.4,0.8l0.5,0.7l0.6,0.7l0.7,0.6l0.7,0.5l0.8,0.6l0.9,0.3l0.9,0.4l0.9,0.2l0.9,0.2l129.1,0l0.9,-0.2l0.9,-0.2l0.8,-0.4l0.9,-0.3l0.7,-0.6l0.8,-0.5l0.7,-0.6l0.5,-0.7l0.6,-0.7l0.5,-0.8l0.4,-0.9l0.4,-0.7l0.2,-1l0.1,-1.1l0,-42.1L197.3,161l-0.2,-0.9l-0.4,-1l-0.4,-0.9l-0.5,-0.7l-0.6,-0.7L194.7,156L194,155.5l-0.8,-0.6l-0.7,-0.5L191.8,154l-1,-0.4l-0.9,-0.1L189,153.3l-129.1,0L59,153.5l-0.9,0.1L57.2,154l-0.7,0.4l-1,0.5l-0.7,0.6L54.3,156l-0.8,0.8L53,157.5l-0.4,0.7L52.1,159l-0.2,0.9l-0.4,0.9l0,0.9l-0.2,1.1Z" class="g3_1" />
<text 
x="62" 
y="190" 
textLength="124" 
class="s1_1"
>Multimodality</text>

<g clip-path="url(#c2_1)">
<path fill-rule="evenodd" d="M50.8,41.4c0,-5.5,4.6,-10,10.1,-10l127,0c5.7,0,10.1,4.5,10.1,10l0,40.5C198,87.5,193.6,92,187.9,92l-127,0C55.4,92,50.8,87.5,50.8,81.9Z" class="g1_1" />
<path d="M50.2,41.4l0,-0.9l0.2,-1.1l0.4,-1.1l0.3,-0.9l0.4,-0.9l0.6,-0.9l0.5,-0.8l0.7,-0.9l0.8,-0.5L55,32.6l0.7,-0.5l0.9,-0.4l1.1,-0.3l1,-0.4l1.1,0l1.1,-0.2l127,0L189,31l1.1,0l1.1,0.4l0.9,0.3l0.9,0.4l1,0.5l0.7,0.6l0.7,0.7l0.8,0.7l0.5,1l0.6,0.9l0.5,0.9l0.4,0.9l0.2,1.1l0.1,0.9l0,42.6L198.4,84l-0.2,1.1L197.8,86l-0.4,0.9l-0.5,0.9l-0.7,0.8l-0.6,0.9L194.7,90L194,90.7l-1,0.6l-0.9,0.4L191.2,92l-1.1,0.2L189,92.4l-0.9,0.2l-127.2,0L59.8,92.4l-1,0L57.7,92L56.8,91.7L55.9,91.3L55,90.7L54.1,90.2L53.3,89.5L52.6,88.7L52.1,87.8L51.5,86.9L51.1,86L50.8,85.1L50.4,84L50.2,83.1l0,-1.2Zm1.1,40.4l0.2,1.1l0,0.9l0.4,0.9l0.2,0.9l0.5,0.8L53,87.1l0.5,0.7l0.6,0.8l0.7,0.7l0.7,0.5l0.8,0.4l0.9,0.4l0.9,0.3L59,91.1l0.9,0.2l129.1,0l0.9,-0.2l0.9,-0.2l0.8,-0.3l0.9,-0.4l0.7,-0.4L194,89.3l0.7,-0.7L195.2,88l0.6,-0.7l0.5,-0.9l0.4,-0.8l0.4,-0.9l0.2,-0.9l0.1,-0.9l0,-42.4l-0.1,-0.9l-0.2,-0.9l-0.4,-0.9L196.3,37l-0.5,-0.7l-0.6,-0.7l-0.5,-0.8L194,34.1l-0.8,-0.5l-0.7,-0.4l-0.7,-0.4l-1,-0.3l-0.9,-0.2L189,32.1l-1.1,-0.2l-127,0l-1,0.2l-0.9,0l-0.9,0.4l-0.9,0.1l-0.7,0.6l-1,0.4l-0.7,0.5l-0.5,0.7l-0.8,0.6L53,36.1L52.6,37l-0.5,0.8l-0.2,0.9l-0.4,0.9l0,0.9l-0.2,0.9Z" class="g3_1" />
</g>
<path fill-rule="evenodd" d="M50.8,41.4c0,-5.5,4.6,-10,10.1,-10l127,0c5.7,0,10.1,4.5,10.1,10l0,40.5C198,87.5,193.6,92,187.9,92l-127,0C55.4,92,50.8,87.5,50.8,81.9Z" class="g1_1" />
<path d="M50.2,41.4l0,-0.9l0.2,-1.1l0.4,-1.1l0.3,-0.9l0.4,-0.9l0.6,-0.9l0.5,-0.8l0.7,-0.9l0.8,-0.5L55,32.6l0.7,-0.5l0.9,-0.4l1.1,-0.3l1,-0.4l1.1,0l1.1,-0.2l127,0L189,31l1.1,0l1.1,0.4l0.9,0.3l0.9,0.4l1,0.5l0.7,0.6l0.7,0.7l0.8,0.7l0.5,1l0.6,0.9l0.5,0.9l0.4,0.9l0.2,1.1l0.1,0.9l0,42.6L198.4,84l-0.2,1.1L197.8,86l-0.4,0.9l-0.5,0.9l-0.7,0.8l-0.6,0.9L194.7,90L194,90.7l-1,0.6l-0.9,0.4L191.2,92l-1.1,0.2L189,92.4l-0.9,0.2l-127.2,0L59.8,92.4l-1,0L57.7,92L56.8,91.7L55.9,91.3L55,90.7L54.1,90.2L53.3,89.5L52.6,88.7L52.1,87.8L51.5,86.9L51.1,86L50.8,85.1L50.4,84L50.2,83.1l0,-1.2Zm1.1,40.4l0.2,1.1l0,0.9l0.4,0.9l0.2,0.9l0.5,0.8L53,87.1l0.5,0.7l0.6,0.8l0.7,0.7l0.7,0.5l0.8,0.4l0.9,0.4l0.9,0.3L59,91.1l0.9,0.2l129.1,0l0.9,-0.2l0.9,-0.2l0.8,-0.3l0.9,-0.4l0.7,-0.4L194,89.3l0.7,-0.7L195.2,88l0.6,-0.7l0.5,-0.9l0.4,-0.8l0.4,-0.9l0.2,-0.9l0.1,-0.9l0,-42.4l-0.1,-0.9l-0.2,-0.9l-0.4,-0.9L196.3,37l-0.5,-0.7l-0.6,-0.7l-0.5,-0.8L194,34.1l-0.8,-0.5l-0.7,-0.4l-0.7,-0.4l-1,-0.3l-0.9,-0.2L189,32.1l-1.1,-0.2l-127,0l-1,0.2l-0.9,0l-0.9,0.4l-0.9,0.1l-0.7,0.6l-1,0.4l-0.7,0.5l-0.5,0.7l-0.8,0.6L53,36.1L52.6,37l-0.5,0.8l-0.2,0.9l-0.4,0.9l0,0.9l-0.2,0.9Z" class="g3_1" />
<text 
x="54" 
y="69" 
textLength="138" 
class="s1_1"
>Global structure</text>

<g clip-path="url(#c3_1)">
<path fill-rule="evenodd" d="M639.8,162.8c0,-5.7,4.4,-10.1,10.1,-10.1l127.1,0c5.5,0,10,4.4,10,10.1l0,40.3c0,5.5,-4.5,10.1,-10,10.1l-127.1,0c-5.7,0,-10.1,-4.6,-10.1,-10.1Z" class="g1_1" />
<path d="M639.3,162.8l0,-1.1l0.2,-1.1l0.1,-0.9l0.4,-1.1l0.6,-0.9l0.3,-0.9l0.8,-0.8l0.7,-0.7l0.7,-0.7l0.8,-0.6l0.9,-0.5l0.9,-0.6l0.9,-0.4l1.1,-0.1l1.1,-0.2l129.3,0l0.9,0.2l1.1,0.1l0.9,0.4l0.9,0.6l0.9,0.5l0.9,0.6l0.8,0.7l0.7,0.7l0.6,0.8l0.5,0.9l0.4,0.9l0.3,0.9l0.4,1.1l0.2,1.1l0,42.5l-0.2,1.1l-0.4,1l-0.3,1.1l-0.4,0.9l-0.5,0.7l-0.6,0.9l-0.7,0.8l-0.8,0.7l-0.9,0.5l-0.7,0.6l-0.9,0.5l-1.1,0.2l-0.9,0.4l-1.1,0.2l-129.3,0l-1.1,-0.2l-0.9,-0.2L645.7,213l-0.9,-0.5l-0.9,-0.6l-0.8,-0.5l-0.7,-0.7l-0.7,-0.8l-0.6,-0.7l-0.5,-0.9L640,207.4l-0.4,-1.1l-0.1,-1l-0.2,-1.1l0,-1.1Zm1.1,40.3l0,0.9l0.2,1l0.1,0.9l0.4,0.9l0.4,0.9l0.5,0.8l0.6,0.7l0.5,0.7l0.8,0.6l0.7,0.5l0.7,0.6l0.8,0.3l0.9,0.4l0.9,0.2l0.9,0.2l129.1,0l0.9,-0.2l0.9,-0.2l0.9,-0.4l0.8,-0.3l0.9,-0.6l0.7,-0.5l0.6,-0.6l0.7,-0.7l0.5,-0.7l0.4,-0.8l0.6,-0.9l0.1,-0.7l0.4,-1l0,-1.1l0.2,-0.9l0,-40.3l-0.2,-0.9l0,-0.9l-0.4,-0.9l-0.1,-1l-0.4,-0.9l-0.6,-0.7l-0.5,-0.7L783.7,156L783,155.5l-0.7,-0.6l-0.8,-0.5L780.6,154l-0.9,-0.4l-0.9,-0.1l-0.9,-0.2l-128.9,0l-0.9,0.2l-1.1,0.1l-0.8,0.4l-0.9,0.4l-0.7,0.5l-0.7,0.6l-0.8,0.5l-0.5,0.8l-0.6,0.7l-0.5,0.7l-0.4,0.8l-0.4,0.9l-0.1,0.9l-0.2,0.9l0,1.1Z" class="g3_1" />
</g>
<path fill-rule="evenodd" d="M639.8,162.8c0,-5.7,4.4,-10.1,10.1,-10.1l127.1,0c5.5,0,10,4.4,10,10.1l0,40.3c0,5.5,-4.5,10.1,-10,10.1l-127.1,0c-5.7,0,-10.1,-4.6,-10.1,-10.1Z" class="g1_1" />
<path d="M639.3,162.8l0,-1.1l0.2,-1.1l0.1,-0.9l0.4,-1.1l0.6,-0.9l0.3,-0.9l0.8,-0.8l0.7,-0.7l0.7,-0.7l0.8,-0.6l0.9,-0.5l0.9,-0.6l0.9,-0.4l1.1,-0.1l1.1,-0.2l129.3,0l0.9,0.2l1.1,0.1l0.9,0.4l0.9,0.6l0.9,0.5l0.9,0.6l0.8,0.7l0.7,0.7l0.6,0.8l0.5,0.9l0.4,0.9l0.3,0.9l0.4,1.1l0.2,1.1l0,42.5l-0.2,1.1l-0.4,1l-0.3,1.1l-0.4,0.9l-0.5,0.7l-0.6,0.9l-0.7,0.8l-0.8,0.7l-0.9,0.5l-0.7,0.6l-0.9,0.5l-1.1,0.2l-0.9,0.4l-1.1,0.2l-129.3,0l-1.1,-0.2l-0.9,-0.2L645.7,213l-0.9,-0.5l-0.9,-0.6l-0.8,-0.5l-0.7,-0.7l-0.7,-0.8l-0.6,-0.7l-0.5,-0.9L640,207.4l-0.4,-1.1l-0.1,-1l-0.2,-1.1l0,-1.1Zm1.1,40.3l0,0.9l0.2,1l0.1,0.9l0.4,0.9l0.4,0.9l0.5,0.8l0.6,0.7l0.5,0.7l0.8,0.6l0.7,0.5l0.7,0.6l0.8,0.3l0.9,0.4l0.9,0.2l0.9,0.2l129.1,0l0.9,-0.2l0.9,-0.2l0.9,-0.4l0.8,-0.3l0.9,-0.6l0.7,-0.5l0.6,-0.6l0.7,-0.7l0.5,-0.7l0.4,-0.8l0.6,-0.9l0.1,-0.7l0.4,-1l0,-1.1l0.2,-0.9l0,-40.3l-0.2,-0.9l0,-0.9l-0.4,-0.9l-0.1,-1l-0.4,-0.9l-0.6,-0.7l-0.5,-0.7L783.7,156L783,155.5l-0.7,-0.6l-0.8,-0.5L780.6,154l-0.9,-0.4l-0.9,-0.1l-0.9,-0.2l-128.9,0l-0.9,0.2l-1.1,0.1l-0.8,0.4l-0.9,0.4l-0.7,0.5l-0.7,0.6l-0.8,0.5l-0.5,0.8l-0.6,0.7l-0.5,0.7l-0.4,0.8l-0.4,0.9l-0.1,0.9l-0.2,0.9l0,1.1Z" class="g3_1" />
<text 
x="677" 
y="190" 
textLength="71" 
class="s1_1"
>Plateaus</text>

<g clip-path="url(#c4_1)">
<path fill-rule="evenodd" d="M639.8,41.4c0,-5.5,4.4,-10,10.1,-10l127.1,0c5.5,0,10,4.5,10,10l0,40.5C787,87.5,782.5,92,777,92L649.9,92c-5.7,0,-10.1,-4.5,-10.1,-10.1Z" class="g1_1" />
<path d="M639.3,41.4l0,-0.9l0.2,-1.1l0.1,-1.1L640,37.4l0.6,-0.9l0.5,-0.9l0.6,-0.8l0.7,-0.9l0.7,-0.5l0.8,-0.8l0.9,-0.5l0.9,-0.4l0.9,-0.3L647.7,31l1.1,0l1.1,-0.2l127.1,0l1.1,0.2l0.9,0l1.1,0.4l0.9,0.3l0.9,0.4l0.9,0.5l0.9,0.6l0.8,0.7l0.7,0.7l0.6,1l0.5,0.9l0.4,0.9l0.3,0.9l0.4,1.1l0.2,0.9l0,42.6L787.4,84L787,85.1L786.7,86l-0.4,0.9l-0.5,0.9l-0.6,0.8l-0.7,0.9L783.7,90l-0.9,0.7l-0.7,0.6l-0.9,0.4L780.1,92l-0.9,0.2l-1.1,0.2L777,92.6l-127.1,0l-1.1,-0.2l-1.1,0L646.8,92l-1.1,-0.3l-0.9,-0.4l-0.9,-0.6l-0.8,-0.5l-0.7,-0.7l-0.7,-0.8l-0.6,-0.9l-0.5,-0.9L640,86l-0.4,-0.9L639.5,84l-0.2,-0.9l0,-1.2Zm1.1,40.4l0,1.1l0.2,0.9l0.1,0.9l0.4,0.9l0.4,0.8l0.5,0.7l0.6,0.7l0.5,0.8l0.8,0.7l0.7,0.5l0.7,0.4l0.8,0.4l0.9,0.3l0.9,0.2l0.9,0.2l129.1,0l0.9,-0.2l0.9,-0.2l0.9,-0.3l0.8,-0.4l0.9,-0.4L783,89.3l0.6,-0.7L784.3,88l0.5,-0.7l0.4,-0.9l0.6,-0.8l0.1,-0.9l0.4,-0.9l0,-0.9l0.2,-1l0,-40.3l-0.2,-1.1l0,-0.9l-0.4,-0.9l-0.1,-0.9L785.4,37l-0.6,-0.7l-0.5,-0.7l-0.6,-0.8L783,34.1l-0.7,-0.5l-0.8,-0.4l-0.9,-0.4l-0.9,-0.3l-0.9,-0.2l-0.9,-0.2L777,31.9l-127.1,0L649,32.1l-0.9,0L647,32.5l-0.8,0.1l-0.9,0.6l-0.7,0.4l-0.7,0.5l-0.8,0.7l-0.5,0.6L642,36.1L641.5,37l-0.4,0.8l-0.4,0.9l-0.1,0.9l-0.2,0.9l0,0.9Z" class="g3_1" />
</g>
<path fill-rule="evenodd" d="M639.8,41.4c0,-5.5,4.4,-10,10.1,-10l127.1,0c5.5,0,10,4.5,10,10l0,40.5C787,87.5,782.5,92,777,92L649.9,92c-5.7,0,-10.1,-4.5,-10.1,-10.1Z" class="g1_1" />
<path d="M639.3,41.4l0,-0.9l0.2,-1.1l0.1,-1.1L640,37.4l0.6,-0.9l0.5,-0.9l0.6,-0.8l0.7,-0.9l0.7,-0.5l0.8,-0.8l0.9,-0.5l0.9,-0.4l0.9,-0.3L647.7,31l1.1,0l1.1,-0.2l127.1,0l1.1,0.2l0.9,0l1.1,0.4l0.9,0.3l0.9,0.4l0.9,0.5l0.9,0.6l0.8,0.7l0.7,0.7l0.6,1l0.5,0.9l0.4,0.9l0.3,0.9l0.4,1.1l0.2,0.9l0,42.6L787.4,84L787,85.1L786.7,86l-0.4,0.9l-0.5,0.9l-0.6,0.8l-0.7,0.9L783.7,90l-0.9,0.7l-0.7,0.6l-0.9,0.4L780.1,92l-0.9,0.2l-1.1,0.2L777,92.6l-127.1,0l-1.1,-0.2l-1.1,0L646.8,92l-1.1,-0.3l-0.9,-0.4l-0.9,-0.6l-0.8,-0.5l-0.7,-0.7l-0.7,-0.8l-0.6,-0.9l-0.5,-0.9L640,86l-0.4,-0.9L639.5,84l-0.2,-0.9l0,-1.2Zm1.1,40.4l0,1.1l0.2,0.9l0.1,0.9l0.4,0.9l0.4,0.8l0.5,0.7l0.6,0.7l0.5,0.8l0.8,0.7l0.7,0.5l0.7,0.4l0.8,0.4l0.9,0.3l0.9,0.2l0.9,0.2l129.1,0l0.9,-0.2l0.9,-0.2l0.9,-0.3l0.8,-0.4l0.9,-0.4L783,89.3l0.6,-0.7L784.3,88l0.5,-0.7l0.4,-0.9l0.6,-0.8l0.1,-0.9l0.4,-0.9l0,-0.9l0.2,-1l0,-40.3l-0.2,-1.1l0,-0.9l-0.4,-0.9l-0.1,-0.9L785.4,37l-0.6,-0.7l-0.5,-0.7l-0.6,-0.8L783,34.1l-0.7,-0.5l-0.8,-0.4l-0.9,-0.4l-0.9,-0.3l-0.9,-0.2l-0.9,-0.2L777,31.9l-127.1,0L649,32.1l-0.9,0L647,32.5l-0.8,0.1l-0.9,0.6l-0.7,0.4l-0.7,0.5l-0.8,0.7l-0.5,0.6L642,36.1L641.5,37l-0.4,0.8l-0.4,0.9l-0.1,0.9l-0.2,0.9l0,0.9Z" class="g3_1" />
<text 
x="657" 
y="56" 
textLength="111" 
class="s1_1"
>Search space </text>

<text 
x="657" 
y="82" 
textLength="112" 
class="s1_1"
>homogeneity</text>

<g clip-path="url(#c0_1)">
<path d="M335.7,378.4L198.4,185l1.6,-1.1L337.3,377.3ZM200,200.2l-2,-17.4l15.8,7.5c0.5,0.4,0.7,0.9,0.5,1.3c-0.4,0.5,-0.9,0.7,-1.3,0.5l-14.3,-6.7l1.5,-1l1.6,15.6c0,0.6,-0.3,0.9,-0.7,1.1c-0.5,0,-1.1,-0.4,-1.1,-0.9Z" class="g3_1" />
<path d="M335.9,291.7L198.2,63.8l1.6,-1.1L337.5,290.6ZM198.7,79L198,61.6l15.2,8.6c0.4,0.4,0.6,0.9,0.4,1.3c-0.4,0.6,-0.9,0.7,-1.3,0.4L198.5,64.2l1.5,-1L200.6,79c0,0.6,-0.4,0.9,-1,0.9c-0.5,0,-0.9,-0.3,-0.9,-0.9Z" class="g3_1" />
<path d="M500.3,377.5L638.2,63.2l1.6,0.8L502,378.2ZM625.9,72.4L639.8,61.8l1.7,17.4c0,0.5,-0.4,0.9,-0.9,0.9c-0.6,0.2,-1,-0.2,-1.1,-0.7L638,63.6l1.6,0.7L627,73.9c-0.4,0.4,-0.9,0.2,-1.3,-0.2c-0.4,-0.4,-0.2,-1.1,0.2,-1.3Z" class="g3_1" />
</g>
<path d="M337.1,32.1L200,182.1l-1.3,-1.3L335.9,30.8ZM214.7,177.3L198,182.8l4,-16.9c0.2,-0.5,0.8,-0.9,1.3,-0.7c0.4,0.2,0.7,0.5,0.7,1.1l-3.6,15.4l-1.3,-1.1l14.8,-5.2c0.6,-0.1,1.1,0.2,1.3,0.8c0.2,0.3,-0.2,0.9,-0.5,1.1Z" class="g3_1" />
<path d="M336.8,32.3L200.2,62.2l-0.4,-1.9L336.2,30.4ZM214.7,66.5L198,61.6L211.2,50c0.4,-0.3,0.9,-0.3,1.3,0.2c0.3,0.4,0.3,0.9,0,1.3L200.6,62l-0.4,-1.7l15,4.4c0.6,0.2,0.9,0.7,0.8,1.3c-0.2,0.5,-0.8,0.7,-1.3,0.5Z" class="g3_1" />
<path d="M335.9,205.3L198.7,63.6l1.5,-1.3L337.1,204ZM202.6,78.5L198,61.6l16.7,5.1c0.5,0,0.9,0.6,0.7,1.1c-0.2,0.6,-0.7,0.8,-1.3,0.8L199.1,64l1.3,-1.3l4,15.2c0.2,0.6,-0.2,1.1,-0.7,1.3c-0.4,0,-0.9,-0.2,-1.1,-0.7Z" class="g3_1" />
<path d="M336.4,118.8L199.5,63.2l0.7,-1.8L337.1,117ZM209,75.2L198,61.6l17.4,-2.2c0.6,0,0.9,0.4,1.1,0.9c0,0.6,-0.4,0.9,-0.9,1.1L200,63.2l0.6,-1.4l9.9,12.3c0.3,0.3,0.3,0.9,-0.2,1.3c-0.4,0.3,-0.9,0.1,-1.3,-0.2Z" class="g3_1" />
<path d="M501.4,30.4L638,60.5l-0.4,1.8L500.9,32.3ZM626.6,50.2l13.2,11.6l-16.7,4.9c-0.5,0.2,-1.1,0,-1.2,-0.5c-0.2,-0.6,0.1,-1.1,0.7,-1.3l15,-4.4l-0.3,1.7l-12,-10.5c-0.3,-0.4,-0.3,-0.9,0,-1.5c0.4,-0.3,1,-0.3,1.3,0Z" class="g3_1" />
<g clip-path="url(#c0_1)">
<path d="M502,31.2L640,440.6l-1.8,0.7L500.3,31.7ZM642.9,425.5l-3.1,17.3L626.8,431c-0.4,-0.3,-0.4,-0.9,0,-1.3c0.4,-0.3,0.9,-0.5,1.3,-0.1l11.7,10.6l-1.6,0.5l2.9,-15.4c0,-0.5,0.6,-0.9,1.1,-0.9c0.6,0.2,0.7,0.8,0.7,1.1Z" class="g3_1" />
</g>
<path d="M500.5,204L637.8,62.5l1.3,1.3L501.8,205.3ZM623.1,66.7l16.7,-4.9l-4.6,16.8c-0.1,0.6,-0.7,0.8,-1.1,0.8c-0.5,-0.2,-0.9,-0.8,-0.7,-1.3l4,-15.2l1.3,1.3l-15,4.4c-0.6,0.2,-1.1,0,-1.3,-0.6c-0.2,-0.5,0.2,-1.1,0.7,-1.3Z" class="g3_1" />
<g clip-path="url(#c0_1)">
<path d="M336,291.9L199.1,184.8l1.1,-1.5L337.3,290.4Zm-131.2,-93L198,182.8l17.2,2.7c0.6,0.2,0.9,0.6,0.9,1.1c-0.1,0.6,-0.5,1,-1.1,0.8L199.5,185l1.1,-1.3l6,14.5c0.2,0.5,0,1.1,-0.5,1.3c-0.4,0.1,-1,0,-1.3,-0.6Z" class="g3_1" />
<path d="M500.5,290.6L637.6,183.5l1.1,1.5L501.8,292.1ZM622.6,185.7L639.8,183L633,199.1c-0.3,0.5,-0.9,0.7,-1.2,0.5c-0.6,-0.1,-0.8,-0.7,-0.6,-1.2l6.1,-14.5l1.1,1.3l-15.6,2.4c-0.6,0.1,-0.9,-0.2,-1.1,-0.8c0,-0.5,0.3,-0.9,0.9,-1.1Z" class="g3_1" />
<path d="M500.3,464.2L638,184.4l1.8,0.8L502,464.9Zm125,-271.1L639.8,183l0.8,17.4c0.1,0.5,-0.4,1.1,-1,1.1c-0.3,0,-0.9,-0.4,-0.9,-0.9L638,184.8l1.5,0.7l-13.1,9c-0.3,0.4,-0.9,0.2,-1.2,-0.2c-0.2,-0.3,-0.2,-1.1,0.1,-1.2Z" class="g3_1" />
</g>
<path d="M337.1,118.8L200.2,183l-0.7,-1.9L336.2,117.2ZM215.4,184.1L198,182.8l10.3,-14.1c0.3,-0.4,0.9,-0.6,1.2,-0.2c0.6,0.4,0.6,0.9,0.4,1.3l-9.3,12.8l-0.8,-1.5l15.8,1.1c0.5,0,0.9,0.4,0.9,1c0,0.5,-0.5,0.9,-1.1,0.9Z" class="g3_1" />
<path d="M501.6,117.2l136.8,64.1l-0.8,1.9L500.7,118.8Zm128,51.7L639.8,183l-17.4,1.3c-0.5,0,-1.1,-0.4,-1.1,-1c0,-0.5,0.4,-0.9,0.9,-1.1L638,181.3l-0.7,1.5L628.1,170c-0.4,-0.4,-0.4,-1,0.2,-1.3c0.3,-0.4,0.9,-0.2,1.3,0.2Z" class="g3_1" />
<path d="M336.4,205.5L199.8,184.1l0.4,-1.9l136.4,21.5ZM211.7,193.6L198,182.8l16.5,-5.9c0.4,-0.2,0.9,0,1.1,0.6c0.2,0.3,0,0.9,-0.6,1.1l-14.6,5.5l0.2,-1.7l12.4,9.7c0.4,0.4,0.4,1,0.2,1.3c-0.4,0.4,-0.9,0.6,-1.5,0.2Z" class="g3_1" />
<g clip-path="url(#c5_1)">
<path fill-rule="evenodd" d="M-126,-156l0,824l1099,0l0,-824l-1099,0Z" class="g1_1" />
</g>
<path fill-rule="evenodd" d="M336.8,291.3c0,-14.5,36.6,-26.2,82.1,-26.2c45.5,0,82.1,11.7,82.1,26.2c0,14.3,-36.6,26.1,-82.1,26.1c-45.5,0,-82.1,-11.8,-82.1,-26.1Z" class="g2_1" />
<path d="M335.1,291.3l0.2,-1.4c0,-0.2,0,-0.2,0,-0.4l0.4,-1.3l0,-0.2l0.5,-1.3l0.8,-1.4l1.1,-1.5l1.2,-1.3l1.3,-1.3l1.7,-1.2l1.6,-1.3l1.9,-1.1l2.2,-1.1l2.2,-1.1l2.2,-1.1l2.5,-1.1l2.6,-0.9l2.7,-1l3,-0.9l3.1,-0.7l3.1,-0.7l3.3,-0.8l3.3,-0.7l3.5,-0.7l3.5,-0.6l3.6,-0.5l3.9,-0.4l3.8,-0.6l3.9,-0.1l4,-0.4l4.1,-0.2l4.2,-0.2l8.4,-0.2l8.4,0.2l4.3,0.2l4,0.2l4,0.4l3.9,0.1l3.8,0.6l3.9,0.4l3.6,0.5l3.5,0.6l3.5,0.7l3.3,0.5l3.3,0.8l3.1,0.9l3.1,0.7l3,0.9l2.7,1l2.6,0.9l2.6,1.1l2.2,0.9l2.2,1.1l2,1.1l2,1.3l1.6,1.1L497,281l1.5,1.3l1.3,1.3l0.9,1.5l0.9,1.4l0.5,1.5l0,0.2l0.4,1.3c0,0.2,0,0.2,0,0.4l0.2,1.2l0,0.2l-0.2,1.3c0,0.2,0,0.2,0,0.4l-0.4,1.3l0,0.1l-0.5,1.3l-0.7,1.5l-1.1,1.5l-1.3,1.2l-1.3,1.5l-1.7,1.1l-1.6,1.3l-1.8,1.1l-2.1,1.3l-2.2,1.1l-2.3,0.9l-2.6,1.1l-2.6,0.9l-2.7,0.9l-3,0.9l-3.1,0.8l-3.1,0.9l-3.1,0.7l-3.5,0.6l-3.5,0.7l-3.5,0.6l-3.6,0.5l-3.9,0.4l-3.8,0.5l-3.9,0.4l-4,0.2l-4,0.2l-4.3,0.1l-8.4,0.2l-8.4,-0.2l-4.2,-0.1l-4.1,-0.2l-4,-0.2l-3.9,-0.4l-3.8,-0.5l-3.9,-0.4L383,316.3l-3.5,-0.6L376,315l-3.3,-0.6l-3.3,-0.7l-3.1,-0.9L363.2,312l-2.8,-0.9l-2.9,-0.9l-2.6,-0.9l-2.4,-1.1l-2.3,-0.9L348,306.2l-2.1,-1.1l-2,-1.3l-1.6,-1.1l-1.5,-1.3l-1.5,-1.3l-1.1,-1.3l-1.1,-1.4l-0.7,-1.5l-0.7,-1.5l0,-0.1L335.3,293c0,-0.2,0,-0.2,0,-0.2l-0.2,-1.5Zm3.1,-0.2l0,1.3l0,-0.2l0.4,1.3l0,-0.2l0.4,1.1l0.5,1.1l0.9,1.3l1.1,1.1l1.1,1.1l1.5,1.1l1.5,1.1l1.8,1.1l1.8,1.1l2.2,0.9l2.2,1.1l2.4,1l2.6,0.9l2.6,0.9l2.9,0.9l2.9,0.7l3.1,0.8l3.2,0.7l3.3,0.7l3.4,0.6l3.5,0.7l3.7,0.4l3.7,0.5l3.6,0.4l4.1,0.4l3.8,0.3l4,0.2l4.1,0.2l16.8,0l4.1,-0.2l4,-0.2l3.9,-0.3l4,-0.4l3.7,-0.4l3.6,-0.5l3.7,-0.6l3.5,-0.5l3.5,-0.6l3.3,-0.7l3.1,-0.7l3.1,-0.8l2.9,-0.7l3,-0.9l2.5,-0.9l2.6,-0.9l2.4,-1l2.2,-0.9l2.2,-1.1l1.8,-1.1l1.7,-1.1l1.6,-1.1l1.5,-1.1l1.1,-1.1l1.1,-1.1l0.7,-1.1l0.7,-1.1l0.4,-1.3l0,0.2l0.4,-1.3l0,0.2l0,-1.3l0,0.2l0,-1.3l0,0.2l-0.4,-1.3l0,0.2L498.8,288l-0.5,-1.1l-0.9,-1.1l-0.9,-1.3l-1.3,-1.1l-1.5,-1.1l-1.5,-1.1l-1.8,-1.1L488.6,279l-2,-0.9L484.2,277l-2.4,-0.9l-2.6,-0.9l-2.5,-0.9l-3,-0.9l-2.9,-0.8l-2.9,-0.7l-3.3,-0.7l-3.3,-0.8l-3.5,-0.5l-3.5,-0.6l-3.5,-0.5L447,268.2l-3.7,-0.3l-4,-0.4l-3.9,-0.2l-4,-0.4l-4.1,-0.1l-16.6,0l-4.3,0.1l-4,0.4l-3.8,0.2l-3.9,0.4l-3.8,0.3l-3.7,0.6l-3.7,0.5l-3.5,0.6l-3.4,0.5l-3.3,0.8l-3.2,0.7l-3.1,0.7l-2.9,0.8l-2.8,0.9l-2.7,0.9l-2.6,0.9l-2.4,0.9l-2.2,0.9l-2,1.1l-2,1.1l-1.6,1.1l-1.7,1.1l-1.3,1.1l-1.3,1.1l-1.1,1.1l-0.7,1.1l-0.7,1.1l-0.4,1.3l0,-0.2l-0.4,1.3l0,-0.2l0,1.3Z" class="g3_1" />
<text 
x="365" 
y="299" 
textLength="105" 
class="s1_1"
>Meta Model</text>

<path fill-rule="evenodd" d="M336.6,377.9c0,-14.3,36.8,-26.1,82.3,-26.1c45.3,0,82.1,11.8,82.1,26.1c0,14.3,-36.8,26,-82.1,26c-45.5,0,-82.3,-11.7,-82.3,-26Z" class="g2_1" />
<path d="M334.9,378c0,-0.1,0,-0.1,0,-0.3l0.2,-1.3l0,-0.2l0.4,-1.5l0,-0.1l0.5,-1.3l0.8,-1.5l1.1,-1.3l1.3,-1.5l1.2,-1.2l1.7,-1.3l1.6,-1.1l1.9,-1.3l2.2,-1.1l2.2,-1.1l2.2,-0.9l2.5,-1.1l2.6,-0.9l2.8,-0.9l2.9,-1l3.1,-0.7l3.1,-0.9l3.3,-0.7l3.3,-0.6l3.5,-0.7l3.7,-0.6l3.6,-0.5l3.7,-0.4l3.9,-0.5l4,-0.4l3.8,-0.2l4.3,-0.2l4,-0.2l8.4,-0.1l8.6,0.1l4.1,0.2l4.2,0.2l3.8,0.2l4.1,0.4l3.8,0.5l3.7,0.4l3.7,0.5l3.6,0.6l3.5,0.7l3.3,0.6l3.3,0.7l3.1,0.9l3.1,0.7l2.8,1l2.7,0.9l2.8,0.9l2.4,0.9l2.4,1.1l2.2,1.1l2,1.1l2,1.1l1.6,1.3l1.5,1.3l1.5,1.2l1.3,1.3l0.9,1.5l0.9,1.3l0.5,1.5c0,0.1,0,0.1,0,0.3l0.4,1.3l0,0.2l0.2,1.3c0,0.2,0,0.2,0,0.3l-0.2,1.3l0,0.2l-0.4,1.3c0,0.2,0,0.2,0,0.4l-0.5,1.2l-0.7,1.5l-1.1,1.3l-1.3,1.5l-1.3,1.2l-1.7,1.3l-1.6,1.1l-1.8,1.3l-2.2,1.1l-2.2,1.1l-2.2,0.9l-2.6,1.1l-2.6,0.9l-2.7,1l-3,0.9l-3.1,0.7l-3.1,0.9l-3.3,0.8l-3.3,0.5l-3.5,0.7l-3.6,0.6l-3.7,0.5l-3.7,0.4l-3.8,0.6l-4.1,0.1l-3.8,0.4l-4.2,0.2l-4.1,0.2l-8.4,0.2l-8.4,-0.2L406.3,405l-4.1,-0.2l-4,-0.4l-4,-0.1l-3.9,-0.6l-3.7,-0.4L383,402.8l-3.7,-0.6l-3.5,-0.7L372.5,401l-3.3,-0.8l-3.1,-0.9L363,398.6l-2.8,-0.9l-2.7,-1l-2.8,-0.9l-2.3,-1.1L350,393.8l-2.2,-1.1l-2,-1.1l-1.9,-1.1l-1.8,-1.3l-1.5,-1.3l-1.4,-1.2l-1.1,-1.3L337,383.9l-0.8,-1.3l-0.7,-1.4c0,-0.2,0,-0.2,0,-0.4l-0.4,-1.3l0,-0.2Zm3.2,1.1l0,-0.3l0.3,1.3l0,-0.2l0.4,1.1l0.5,1.3l1,1.1l0.9,1.1l1.3,1.1l1.4,1.1l1.5,1.1l1.8,1.1l1.9,1.1l2.2,1.1l2.2,0.9l2.3,0.9l2.6,0.9l2.6,0.9l2.9,0.9l2.9,0.8l3.2,0.7l3.1,0.7l3.3,0.8l3.5,0.5l3.4,0.6l3.7,0.5l3.7,0.6l3.8,0.3l3.9,0.4l4,0.2l3.9,0.4l4.2,0.1l16.7,0l4,-0.1l4,-0.4l4.1,-0.2l3.8,-0.4l3.9,-0.3l3.6,-0.6l3.7,-0.5l3.5,-0.6l3.5,-0.5l3.3,-0.8l3.1,-0.7l3.1,-0.7l2.9,-0.8l2.8,-0.9l2.7,-0.9l2.6,-0.9l2.4,-0.9l2.2,-0.9l2,-1.1l2,-1.1l1.7,-1l1.6,-1.1l1.5,-1.1l1.1,-1.1l1.1,-1.2l0.7,-1.1l0.7,-1.1l0.4,-1.3l0,0.2l0.4,-1.3l0,0.3l0,-1.4l0,0.3l0,-1.4l0,0.3l-0.4,-1.4l0,0.3l-0.4,-1.2l-0.5,-1.1l-0.9,-1.1l-0.9,-1.1l-1.3,-1.1L493.7,369l-1.5,-1.1l-1.8,-1.1l-1.8,-1.1l-2.2,-1l-2.2,-1l-2.4,-0.9l-2.6,-0.9L476.7,361l-3,-0.9l-2.9,-0.8l-3.1,-0.7l-3.1,-0.7l-3.3,-0.8l-3.5,-0.5L454.3,356l-3.7,-0.5L447,354.9l-3.9,-0.3l-3.8,-0.4l-3.9,-0.4l-4,-0.1l-4.2,-0.2l-16.7,0l-4.1,0.2l-4,0.1l-4,0.4l-3.9,0.4l-3.8,0.3l-3.7,0.6l-3.7,0.5l-3.4,0.6l-3.5,0.5l-3.3,0.8l-3.1,0.5l-3.2,0.9l-2.9,0.8l-2.7,0.9l-2.8,0.9l-2.6,0.9l-2.3,0.9l-2.2,1l-2.1,1l-2,1l-1.6,1.1l-1.7,1.1l-1.3,1.1l-1.2,1.1l-1.1,1.1l-0.8,1.1l-0.7,1.3l-0.4,1.2l0,-0.3l-0.3,1.4l0,-0.3l0,1.4l0,-0.3Z" class="g3_1" />
<text 
x="394" 
y="372" 
textLength="48" 
class="s1_1"
>Local</text>

<text 
x="389" 
y="398" 
textLength="58" 
class="s1_1"
>Search</text>

<g clip-path="url(#c6_1)">
<path fill-rule="evenodd" d="M50.8,422.6c0,-5.7,4.6,-10.3,10.1,-10.3l127,0c5.7,0,10.1,4.6,10.1,10.3l0,40.5c0,5.5,-4.4,10.1,-10.1,10.1l-127,0c-5.5,0,-10.1,-4.6,-10.1,-10.1Z" class="g1_1" />
<path d="M50.2,422.6l0,-1.1l0.2,-1.1l0.4,-1.1l0.3,-0.9l0.4,-0.9l0.6,-1l0.5,-0.7l0.7,-0.7l0.8,-0.8L55,413.6l0.9,-0.5l0.9,-0.4l0.9,-0.4l1.1,-0.2l1,-0.1l1.1,-0.2l127,0L189,412l1.1,0.1l0.9,0.2l1.1,0.4l0.9,0.4l1,0.5l0.7,0.7l0.7,0.6l0.8,0.7l0.5,0.9l0.6,1l0.5,0.9l0.4,0.9l0.2,1.1l0.1,1.1l0,42.5l-0.1,1.1l-0.2,1.1l-0.4,0.9l-0.5,1l-0.4,0.9l-0.7,0.9l-0.8,0.7l-0.7,0.6l-0.7,0.7l-1,0.6l-0.9,0.3l-0.9,0.4l-1.1,0.4l-1.1,0l-1.1,0.1l-128,0l-1.1,-0.1l-1.1,-0.4l-0.9,-0.4l-0.9,-0.3L55,471.9l-0.9,-0.5l-0.8,-0.8l-0.5,-0.7L52.1,469l-0.6,-0.9l-0.4,-1l-0.3,-0.9l-0.4,-1.1l-0.2,-0.9l0,-1.1Zm1.1,40.3l0.2,1.1l0,0.9l0.4,1l0.2,0.9l0.5,0.7l0.4,0.9l0.5,0.8l0.8,0.5l0.5,0.7l0.7,0.6l1,0.4l0.7,0.3l0.9,0.4l0.9,0.4l0.9,0l1,0.1l127,0l0.9,-0.1l0.9,0l1.1,-0.4l0.8,-0.2l0.9,-0.5l0.7,-0.4l0.8,-0.6l0.7,-0.7l0.5,-0.5l0.6,-0.8l0.5,-0.9l0.4,-0.7l0.4,-0.9l0.2,-1l0.1,-0.9l0,-42.3l-0.1,-1.1l-0.2,-0.9l-0.4,-0.8L196.3,418l-0.5,-0.7l-0.6,-0.8l-0.5,-0.7L194,415.3l-0.8,-0.6l-0.7,-0.5l-0.7,-0.4l-1,-0.4l-0.9,-0.2L189,413.1l-129.1,0L59,413.2l-0.9,0.2l-0.9,0.4l-0.7,0.4l-1,0.3l-0.7,0.6l-0.5,0.7l-0.8,0.6L53,417.1L52.6,418l-0.4,0.7l-0.3,1l-0.4,0.9l0,0.9l-0.2,1.1Z" class="g3_1" />
</g>
<path fill-rule="evenodd" d="M50.8,422.6c0,-5.7,4.6,-10.3,10.1,-10.3l127,0c5.7,0,10.1,4.6,10.1,10.3l0,40.5c0,5.5,-4.4,10.1,-10.1,10.1l-127,0c-5.5,0,-10.1,-4.6,-10.1,-10.1Z" class="g1_1" />
<path d="M50.2,422.6l0,-1.1l0.2,-1.1l0.4,-1.1l0.3,-0.9l0.4,-0.9l0.6,-1l0.5,-0.7l0.7,-0.7l0.8,-0.8L55,413.6l0.9,-0.5l0.9,-0.4l0.9,-0.4l1.1,-0.2l1,-0.1l1.1,-0.2l127,0L189,412l1.1,0.1l0.9,0.2l1.1,0.4l0.9,0.4l1,0.5l0.7,0.7l0.7,0.6l0.8,0.7l0.5,0.9l0.6,1l0.5,0.9l0.4,0.9l0.2,1.1l0.1,1.1l0,42.5l-0.1,1.1l-0.2,1.1l-0.4,0.9l-0.5,1l-0.4,0.9l-0.7,0.9l-0.8,0.7l-0.7,0.6l-0.7,0.7l-1,0.6l-0.9,0.3l-0.9,0.4l-1.1,0.4l-1.1,0l-1.1,0.1l-128,0l-1.1,-0.1l-1.1,-0.4l-0.9,-0.4l-0.9,-0.3L55,471.9l-0.9,-0.5l-0.8,-0.8l-0.5,-0.7L52.1,469l-0.6,-0.9l-0.4,-1l-0.3,-0.9l-0.4,-1.1l-0.2,-0.9l0,-1.1Zm1.1,40.3l0.2,1.1l0,0.9l0.4,1l0.2,0.9l0.5,0.7l0.4,0.9l0.5,0.8l0.8,0.5l0.5,0.7l0.7,0.6l1,0.4l0.7,0.3l0.9,0.4l0.9,0.4l0.9,0l1,0.1l127,0l0.9,-0.1l0.9,0l1.1,-0.4l0.8,-0.2l0.9,-0.5l0.7,-0.4l0.8,-0.6l0.7,-0.7l0.5,-0.5l0.6,-0.8l0.5,-0.9l0.4,-0.7l0.4,-0.9l0.2,-1l0.1,-0.9l0,-42.3l-0.1,-1.1l-0.2,-0.9l-0.4,-0.8L196.3,418l-0.5,-0.7l-0.6,-0.8l-0.5,-0.7L194,415.3l-0.8,-0.6l-0.7,-0.5l-0.7,-0.4l-1,-0.4l-0.9,-0.2L189,413.1l-129.1,0L59,413.2l-0.9,0.2l-0.9,0.4l-0.7,0.4l-1,0.3l-0.7,0.6l-0.5,0.7l-0.8,0.6L53,417.1L52.6,418l-0.4,0.7l-0.3,1l-0.4,0.9l0,0.9l-0.2,1.1Z" class="g3_1" />
<text 
x="60" 
y="437" 
textLength="127" 
class="s1_1"
>Global to local </text>

<text 
x="57" 
y="463" 
textLength="132" 
class="s1_1"
>optima contrast</text>

<g clip-path="url(#c7_1)">
<path fill-rule="evenodd" d="M639.8,292.6c0,-5.5,4.4,-10.1,10.1,-10.1l127.1,0c5.5,0,10,4.6,10,10.1l0,40.5c0,5.7,-4.5,10.1,-10,10.1l-127.1,0c-5.7,0,-10.1,-4.4,-10.1,-10.1Z" class="g1_1" />
<path d="M639.3,292.6l0,-0.9l0.2,-1.1l0.1,-1.1l0.4,-0.9l0.6,-0.9l0.3,-1l0.8,-0.9l0.7,-0.7l0.7,-0.8l0.8,-0.5l0.9,-0.6l0.9,-0.3l0.9,-0.4l1.1,-0.4l1.1,-0.1l129.1,0l1.1,0.1l1.1,0.4l0.9,0.4l0.9,0.3l0.9,0.6l0.9,0.5l0.8,0.8l0.7,0.7l0.6,0.9l0.5,0.8l0.4,1.1l0.3,0.9l0.4,0.9l0.2,1.1l0,42.7l-0.2,1.1l-0.4,0.9l-0.3,1.1l-0.4,0.9l-0.5,1l-0.6,0.7l-0.7,0.7l-0.8,0.8l-0.9,0.5l-0.7,0.6l-0.9,0.5l-1.1,0.4l-0.9,0.2l-1.1,0.2l-1.1,0.1l-127.1,0l-1.1,-0.1l-1.1,-0.2l-0.9,-0.2L645.7,343l-0.9,-0.3l-0.9,-0.6l-0.8,-0.7l-0.7,-0.6l-0.7,-0.9l-0.6,-0.7l-0.5,-1L640,337.3l-0.4,-0.9l-0.1,-1.1l-0.2,-1.1l0,-1.1Zm1.1,40.5l0,0.9l0.2,1.1l0.1,1l0.4,0.7l0.4,0.9l0.5,0.7l0.6,0.8l0.5,0.7l0.8,0.5l0.7,0.6l0.7,0.5l0.9,0.4l0.8,0.4l0.9,0.2l1.1,0.2l128.9,0l0.9,-0.2l0.9,-0.2l0.9,-0.4l0.8,-0.4l0.9,-0.5l0.7,-0.6l0.6,-0.5l0.7,-0.7l0.5,-0.8l0.4,-0.7l0.6,-0.7l0.1,-0.9l0.4,-1l0,-0.9l0.2,-1.1l0,-40.3l-0.2,-1.1l0,-0.9l-0.4,-0.9l-0.1,-1l-0.6,-0.7l-0.4,-0.9l-0.5,-0.8L783.7,286L783,285.3l-0.7,-0.6l-0.8,-0.4l-0.9,-0.5l-0.9,-0.2l-0.9,-0.4l-0.9,0L777,283.1l-127.1,0l-0.9,0.1l-0.9,0l-0.9,0.4l-1,0.2l-0.9,0.5l-0.7,0.4l-0.7,0.6l-0.8,0.5l-0.5,0.7l-0.6,0.8l-0.5,0.7l-0.4,0.9l-0.4,1l-0.1,0.9l-0.2,0.9l0,0.9Z" class="g3_1" />
</g>
<path fill-rule="evenodd" d="M639.8,292.6c0,-5.5,4.4,-10.1,10.1,-10.1l127.1,0c5.5,0,10,4.6,10,10.1l0,40.5c0,5.7,-4.5,10.1,-10,10.1l-127.1,0c-5.7,0,-10.1,-4.4,-10.1,-10.1Z" class="g1_1" />
<path d="M639.3,292.6l0,-0.9l0.2,-1.1l0.1,-1.1l0.4,-0.9l0.6,-0.9l0.3,-1l0.8,-0.9l0.7,-0.7l0.7,-0.8l0.8,-0.5l0.9,-0.6l0.9,-0.3l0.9,-0.4l1.1,-0.4l1.1,-0.1l129.1,0l1.1,0.1l1.1,0.4l0.9,0.4l0.9,0.3l0.9,0.6l0.9,0.5l0.8,0.8l0.7,0.7l0.6,0.9l0.5,0.8l0.4,1.1l0.3,0.9l0.4,0.9l0.2,1.1l0,42.7l-0.2,1.1l-0.4,0.9l-0.3,1.1l-0.4,0.9l-0.5,1l-0.6,0.7l-0.7,0.7l-0.8,0.8l-0.9,0.5l-0.7,0.6l-0.9,0.5l-1.1,0.4l-0.9,0.2l-1.1,0.2l-1.1,0.1l-127.1,0l-1.1,-0.1l-1.1,-0.2l-0.9,-0.2L645.7,343l-0.9,-0.3l-0.9,-0.6l-0.8,-0.7l-0.7,-0.6l-0.7,-0.9l-0.6,-0.7l-0.5,-1L640,337.3l-0.4,-0.9l-0.1,-1.1l-0.2,-1.1l0,-1.1Zm1.1,40.5l0,0.9l0.2,1.1l0.1,1l0.4,0.7l0.4,0.9l0.5,0.7l0.6,0.8l0.5,0.7l0.8,0.5l0.7,0.6l0.7,0.5l0.9,0.4l0.8,0.4l0.9,0.2l1.1,0.2l128.9,0l0.9,-0.2l0.9,-0.2l0.9,-0.4l0.8,-0.4l0.9,-0.5l0.7,-0.6l0.6,-0.5l0.7,-0.7l0.5,-0.8l0.4,-0.7l0.6,-0.7l0.1,-0.9l0.4,-1l0,-0.9l0.2,-1.1l0,-40.3l-0.2,-1.1l0,-0.9l-0.4,-0.9l-0.1,-1l-0.6,-0.7l-0.4,-0.9l-0.5,-0.8L783.7,286L783,285.3l-0.7,-0.6l-0.8,-0.4l-0.9,-0.5l-0.9,-0.2l-0.9,-0.4l-0.9,0L777,283.1l-127.1,0l-0.9,0.1l-0.9,0l-0.9,0.4l-1,0.2l-0.9,0.5l-0.7,0.4l-0.7,0.6l-0.8,0.5l-0.5,0.7l-0.6,0.8l-0.5,0.7l-0.4,0.9l-0.4,1l-0.1,0.9l-0.2,0.9l0,0.9Z" class="g3_1" />
<text 
x="644" 
y="320" 
textLength="137" 
class="s1_1"
>Variable scaling</text>

<g clip-path="url(#c8_1)">
<path fill-rule="evenodd" d="M50.8,292.6c0,-5.5,4.6,-10.1,10.1,-10.1l127,0c5.7,0,10.1,4.6,10.1,10.1l0,40.5c0,5.7,-4.4,10.1,-10.1,10.1l-127,0c-5.5,0,-10.1,-4.4,-10.1,-10.1Z" class="g1_1" />
<path d="M50.2,292.6l0,-0.9l0.2,-1.1l0.4,-1.1l0.3,-0.9l0.4,-0.9l0.6,-1l0.5,-0.9l0.7,-0.7l0.8,-0.8L55,283.8l0.9,-0.6l0.9,-0.3l0.9,-0.4l1.1,-0.4l1,-0.1L189,282l1.1,0.1l0.9,0.4l1.1,0.4l0.9,0.3l1,0.6l0.7,0.5l0.7,0.8l0.8,0.7l0.5,0.9l0.6,0.8l0.5,1.1l0.4,0.9l0.2,0.9l0.1,1.1l0,42.7l-0.1,1.1l-0.2,0.9l-0.4,1.1l-0.5,0.9l-0.4,1l-0.7,0.7l-0.8,0.7l-0.7,0.8l-0.7,0.5l-1,0.6l-0.9,0.5l-0.9,0.4l-1.1,0.2l-1.1,0.2l-1.1,0.1l-127,0l-1,-0.1l-1.1,-0.2l-1.1,-0.2L56.8,343l-0.9,-0.3L55,342.1l-0.9,-0.7l-0.8,-0.6l-0.5,-0.9l-0.7,-0.7l-0.6,-1l-0.4,-0.9l-0.3,-0.9l-0.4,-1.1l-0.2,-1.1l0,-1.1Zm1.1,40.5l0.2,0.9l0,1.1l0.4,1l0.2,0.7l0.5,0.9l0.4,0.7l0.5,0.8l0.8,0.7l0.5,0.5l0.7,0.6l1,0.5l0.7,0.4l0.9,0.4l0.9,0.2l0.9,0.2l128.9,0l0.9,-0.2l1.1,-0.2l0.8,-0.4l0.9,-0.4l0.7,-0.5l0.8,-0.6l0.7,-0.5l0.5,-0.7l0.6,-0.8l0.5,-0.7l0.4,-0.7l0.4,-0.9l0.2,-1l0.1,-0.9l0,-42.5l-0.1,-0.9l-0.2,-0.9l-0.4,-1l-0.4,-0.7l-0.5,-0.9l-0.6,-0.8L194.7,286L194,285.3l-0.8,-0.6l-0.7,-0.4l-0.7,-0.5l-1,-0.2l-0.9,-0.4l-0.9,0l-1.1,-0.1L61,283.1l-1.1,0.1l-0.9,0l-0.9,0.4l-0.9,0.2l-0.7,0.5l-1,0.4l-0.7,0.6l-0.5,0.5l-0.8,0.7L53,287.3L52.6,288l-0.4,0.9l-0.3,1l-0.4,0.9l0,0.9l-0.2,0.9Z" class="g3_1" />
</g>
<path fill-rule="evenodd" d="M50.8,292.6c0,-5.5,4.6,-10.1,10.1,-10.1l127,0c5.7,0,10.1,4.6,10.1,10.1l0,40.5c0,5.7,-4.4,10.1,-10.1,10.1l-127,0c-5.5,0,-10.1,-4.4,-10.1,-10.1Z" class="g1_1" />
<path d="M50.2,292.6l0,-0.9l0.2,-1.1l0.4,-1.1l0.3,-0.9l0.4,-0.9l0.6,-1l0.5,-0.9l0.7,-0.7l0.8,-0.8L55,283.8l0.9,-0.6l0.9,-0.3l0.9,-0.4l1.1,-0.4l1,-0.1L189,282l1.1,0.1l0.9,0.4l1.1,0.4l0.9,0.3l1,0.6l0.7,0.5l0.7,0.8l0.8,0.7l0.5,0.9l0.6,0.8l0.5,1.1l0.4,0.9l0.2,0.9l0.1,1.1l0,42.7l-0.1,1.1l-0.2,0.9l-0.4,1.1l-0.5,0.9l-0.4,1l-0.7,0.7l-0.8,0.7l-0.7,0.8l-0.7,0.5l-1,0.6l-0.9,0.5l-0.9,0.4l-1.1,0.2l-1.1,0.2l-1.1,0.1l-127,0l-1,-0.1l-1.1,-0.2l-1.1,-0.2L56.8,343l-0.9,-0.3L55,342.1l-0.9,-0.7l-0.8,-0.6l-0.5,-0.9l-0.7,-0.7l-0.6,-1l-0.4,-0.9l-0.3,-0.9l-0.4,-1.1l-0.2,-1.1l0,-1.1Zm1.1,40.5l0.2,0.9l0,1.1l0.4,1l0.2,0.7l0.5,0.9l0.4,0.7l0.5,0.8l0.8,0.7l0.5,0.5l0.7,0.6l1,0.5l0.7,0.4l0.9,0.4l0.9,0.2l0.9,0.2l128.9,0l0.9,-0.2l1.1,-0.2l0.8,-0.4l0.9,-0.4l0.7,-0.5l0.8,-0.6l0.7,-0.5l0.5,-0.7l0.6,-0.8l0.5,-0.7l0.4,-0.7l0.4,-0.9l0.2,-1l0.1,-0.9l0,-42.5l-0.1,-0.9l-0.2,-0.9l-0.4,-1l-0.4,-0.7l-0.5,-0.9l-0.6,-0.8L194.7,286L194,285.3l-0.8,-0.6l-0.7,-0.4l-0.7,-0.5l-1,-0.2l-0.9,-0.4l-0.9,0l-1.1,-0.1L61,283.1l-1.1,0.1l-0.9,0l-0.9,0.4l-0.9,0.2l-0.7,0.5l-1,0.4l-0.7,0.6l-0.5,0.5l-0.8,0.7L53,287.3L52.6,288l-0.4,0.9l-0.3,1l-0.4,0.9l0,0.9l-0.2,0.9Z" class="g3_1" />
<text 
x="72" 
y="320" 
textLength="103" 
class="s1_1"
>Separability</text>

<g clip-path="url(#c9_1)">
<path fill-rule="evenodd" d="M639.8,422.6c0,-5.7,4.4,-10.3,10.1,-10.3l127.1,0c5.5,0,10,4.6,10,10.3l0,40.5c0,5.5,-4.5,10.1,-10,10.1l-127.1,0c-5.7,0,-10.1,-4.6,-10.1,-10.1Z" class="g1_1" />
<path d="M639.3,422.6l0,-1.1l0.2,-1.1l0.1,-1.1l0.4,-0.9l0.6,-0.9l0.3,-1l0.8,-0.7l0.7,-0.7l0.7,-0.8l0.8,-0.7l0.9,-0.5l0.9,-0.4l0.9,-0.4l1.1,-0.2l1.1,-0.1l1.1,-0.2l127.1,0l0.9,0.2l1.1,0.1l1.1,0.2l0.9,0.4l0.9,0.4l0.9,0.5l0.9,0.7l0.8,0.6l0.7,0.7l0.6,0.9l0.5,1l0.4,0.9l0.3,0.9l0.4,1.1l0.2,1.1l0,42.5l-0.2,1.1l-0.4,1.1l-0.3,0.9l-0.4,1l-0.5,0.9l-0.6,0.9l-0.7,0.7l-0.8,0.6l-0.9,0.7l-0.7,0.6l-0.9,0.3l-1.1,0.4l-0.9,0.4l-1.1,0l-1.1,0.1l-128.2,0l-1.1,-0.1l-0.9,-0.4l-1.1,-0.4l-0.9,-0.3l-0.9,-0.6l-0.8,-0.5l-0.7,-0.8l-0.7,-0.7L641.1,469l-0.5,-0.9l-0.6,-1l-0.4,-0.9l-0.1,-1.1l-0.2,-0.9l0,-1.1Zm1.1,40.3l0,1.1l0.2,0.9l0.1,1l0.4,0.9l0.4,0.7l0.5,0.9l0.6,0.8l0.5,0.5l0.8,0.7l0.7,0.6l0.7,0.4l0.9,0.3l0.8,0.4l0.9,0.4l1.1,0l0.9,0.1l126.9,0l1.1,-0.1l0.9,0l0.9,-0.4l0.9,-0.2l0.8,-0.5l0.9,-0.4l0.7,-0.6l0.6,-0.7l0.7,-0.5l0.5,-0.8l0.4,-0.9l0.6,-0.7l0.1,-0.9l0.4,-1l0,-0.9l0.2,-0.9l0,-40.5l-0.2,-0.9l0,-1.1l-0.4,-0.9l-0.1,-0.8L785.2,418l-0.4,-0.7l-0.5,-0.8l-0.6,-0.7L783,415.3l-0.7,-0.6l-0.8,-0.5l-0.9,-0.4l-0.9,-0.4l-0.9,-0.2l-0.9,-0.1l-128.9,0l-0.9,0.1l-0.9,0.2l-1,0.4l-0.9,0.4l-0.7,0.3l-0.7,0.6l-0.8,0.7l-0.5,0.6l-0.6,0.7l-0.5,0.9l-0.4,0.7l-0.4,1l-0.1,0.9l-0.2,0.9l0,1.1Z" class="g3_1" />
</g>
<path fill-rule="evenodd" d="M639.8,422.6c0,-5.7,4.4,-10.3,10.1,-10.3l127.1,0c5.5,0,10,4.6,10,10.3l0,40.5c0,5.5,-4.5,10.1,-10,10.1l-127.1,0c-5.7,0,-10.1,-4.6,-10.1,-10.1Z" class="g1_1" />
<path d="M639.3,422.6l0,-1.1l0.2,-1.1l0.1,-1.1l0.4,-0.9l0.6,-0.9l0.3,-1l0.8,-0.7l0.7,-0.7l0.7,-0.8l0.8,-0.7l0.9,-0.5l0.9,-0.4l0.9,-0.4l1.1,-0.2l1.1,-0.1l1.1,-0.2l127.1,0l0.9,0.2l1.1,0.1l1.1,0.2l0.9,0.4l0.9,0.4l0.9,0.5l0.9,0.7l0.8,0.6l0.7,0.7l0.6,0.9l0.5,1l0.4,0.9l0.3,0.9l0.4,1.1l0.2,1.1l0,42.5l-0.2,1.1l-0.4,1.1l-0.3,0.9l-0.4,1l-0.5,0.9l-0.6,0.9l-0.7,0.7l-0.8,0.6l-0.9,0.7l-0.7,0.6l-0.9,0.3l-1.1,0.4l-0.9,0.4l-1.1,0l-1.1,0.1l-128.2,0l-1.1,-0.1l-0.9,-0.4l-1.1,-0.4l-0.9,-0.3l-0.9,-0.6l-0.8,-0.5l-0.7,-0.8l-0.7,-0.7L641.1,469l-0.5,-0.9l-0.6,-1l-0.4,-0.9l-0.1,-1.1l-0.2,-0.9l0,-1.1Zm1.1,40.3l0,1.1l0.2,0.9l0.1,1l0.4,0.9l0.4,0.7l0.5,0.9l0.6,0.8l0.5,0.5l0.8,0.7l0.7,0.6l0.7,0.4l0.9,0.3l0.8,0.4l0.9,0.4l1.1,0l0.9,0.1l126.9,0l1.1,-0.1l0.9,0l0.9,-0.4l0.9,-0.2l0.8,-0.5l0.9,-0.4l0.7,-0.6l0.6,-0.7l0.7,-0.5l0.5,-0.8l0.4,-0.9l0.6,-0.7l0.1,-0.9l0.4,-1l0,-0.9l0.2,-0.9l0,-40.5l-0.2,-0.9l0,-1.1l-0.4,-0.9l-0.1,-0.8L785.2,418l-0.4,-0.7l-0.5,-0.8l-0.6,-0.7L783,415.3l-0.7,-0.6l-0.8,-0.5l-0.9,-0.4l-0.9,-0.4l-0.9,-0.2l-0.9,-0.1l-128.9,0l-0.9,0.1l-0.9,0.2l-1,0.4l-0.9,0.4l-0.7,0.3l-0.7,0.6l-0.8,0.7l-0.5,0.6l-0.6,0.7l-0.5,0.9l-0.4,0.7l-0.4,1l-0.1,0.9l-0.2,0.9l0,1.1Z" class="g3_1" />
<text 
x="669" 
y="437" 
textLength="87" 
class="s1_1"
>Basin size </text>

<text 
x="657" 
y="463" 
textLength="112" 
class="s1_1"
>homogeneity</text>

<g clip-path="url(#c5_1)">
<path d="M335.7,378.4L198.4,185l1.6,-1.1L337.3,377.3ZM200,200.2l-2,-17.4l15.8,7.5c0.5,0.4,0.7,0.9,0.5,1.3c-0.4,0.5,-0.9,0.7,-1.3,0.5l-14.3,-6.7l1.5,-1l1.6,15.6c0,0.6,-0.3,0.9,-0.7,1.1c-0.5,0,-1.1,-0.4,-1.1,-0.9Z" class="g3_1" />
<path d="M335.9,291.7L198.2,63.8l1.6,-1.1L337.5,290.6ZM198.7,79L198,61.6l15.2,8.6c0.4,0.4,0.6,0.9,0.4,1.3c-0.4,0.6,-0.9,0.7,-1.3,0.4L198.5,64.2l1.5,-1L200.6,79c0,0.6,-0.4,0.9,-1,0.9c-0.5,0,-0.9,-0.3,-0.9,-0.9Z" class="g3_1" />
<path d="M500.3,377.5L638.2,63.2l1.6,0.8L502,378.2ZM625.9,72.4L639.8,61.8l1.7,17.4c0,0.5,-0.4,0.9,-0.9,0.9c-0.6,0.2,-1,-0.2,-1.1,-0.7L638,63.6l1.6,0.7L627,73.9c-0.4,0.4,-0.9,0.2,-1.3,-0.2c-0.4,-0.4,-0.2,-1.1,0.2,-1.3Z" class="g3_1" />
</g>
<path d="M501.6,376.9l136.8,64.2l-0.8,1.7l-136.9,-64Zm128,51.7l10.2,14.2L622.4,444c-0.5,0,-1.1,-0.3,-1.1,-0.9c0,-0.5,0.4,-1.1,0.9,-1.1L638,440.9l-0.7,1.7l-9.2,-12.9c-0.4,-0.3,-0.4,-1.1,0.2,-1.2c0.3,-0.4,0.9,-0.2,1.3,0.1Z" class="g3_1" />
<path d="M337,378.8l-136.8,64l-0.7,-1.7L336,376.9ZM215.4,444L198,442.8l10.3,-14.2c0.3,-0.3,0.9,-0.5,1.2,-0.1c0.6,0.1,0.6,0.9,0.2,1.2l-9.1,12.9l-0.8,-1.7l15.8,1.1c0.5,0,0.9,0.6,0.9,1.1c0,0.6,-0.5,0.9,-1.1,0.9Z" class="g3_1" />
<path d="M336.8,292.1L200.2,313.5l-0.4,-1.8L336.6,290.2ZM214.5,319L198,312.9l13.7,-10.8c0.6,-0.3,1.1,-0.1,1.5,0.2c0.2,0.4,0.2,1.1,-0.2,1.3l-12.4,9.7l-0.2,-1.6l14.6,5.5c0.6,0.2,0.8,0.7,0.6,1.1c-0.2,0.5,-0.7,0.9,-1.1,0.7Z" class="g3_1" />
<path d="M501.6,376.9l136.8,64.2l-0.8,1.7l-136.9,-64Zm128,51.7l10.2,14.2L622.4,444c-0.5,0,-1.1,-0.3,-1.1,-0.9c0,-0.5,0.4,-1.1,0.9,-1.1L638,440.9l-0.7,1.7l-9.2,-12.9c-0.4,-0.3,-0.4,-1.1,0.2,-1.2c0.3,-0.4,0.9,-0.2,1.3,0.1Z" class="g3_1" />
<g clip-path="url(#c5_1)">
<path d="M502,31.2L640,440.6l-1.8,0.7L500.3,31.7ZM642.9,425.5l-3.1,17.3L626.8,431c-0.4,-0.3,-0.4,-0.9,0,-1.3c0.4,-0.3,0.9,-0.5,1.3,-0.1l11.7,10.6l-1.6,0.5l2.9,-15.4c0,-0.5,0.6,-0.9,1.1,-0.9c0.6,0.2,0.7,0.8,0.7,1.1Z" class="g3_1" />
</g>
<path d="M501.2,290.2L638,311.7l-0.4,1.8L501,292.1Zm124.9,11.9l13.7,10.8L623.3,319c-0.3,0.2,-0.9,-0.2,-1.1,-0.7c-0.2,-0.4,0,-0.9,0.6,-1.1l14.6,-5.5l-0.1,1.6l-12.5,-9.7c-0.4,-0.2,-0.4,-0.9,-0.2,-1.3c0.4,-0.3,0.9,-0.5,1.5,-0.2Z" class="g3_1" />
<g clip-path="url(#c5_1)">
<path d="M336,291.9L199.1,184.8l1.1,-1.5L337.3,290.4Zm-131.2,-93L198,182.8l17.2,2.7c0.6,0.2,0.9,0.6,0.9,1.1c-0.1,0.6,-0.5,1,-1.1,0.8L199.5,185l1.1,-1.3l6,14.5c0.2,0.5,0,1.1,-0.5,1.3c-0.4,0.1,-1,0,-1.3,-0.6Z" class="g3_1" />
<path d="M500.5,290.6L637.6,183.5l1.1,1.5L501.8,292.1ZM622.6,185.7L639.8,183L633,199.1c-0.3,0.5,-0.9,0.7,-1.2,0.5c-0.6,-0.1,-0.8,-0.7,-0.6,-1.2l6.1,-14.5l1.1,1.3l-15.6,2.4c-0.6,0.1,-0.9,-0.2,-1.1,-0.8c0,-0.5,0.3,-0.9,0.9,-1.1Z" class="g3_1" />
</g>
<path fill-rule="evenodd" d="M336.6,464.6c0,-14.3,36.8,-26.1,82.3,-26.1c45.3,0,82.1,11.8,82.1,26.1c0,14.3,-36.8,26,-82.1,26c-45.5,0,-82.3,-11.7,-82.3,-26Z" class="g2_1" />
<path d="M334.9,464.6l0.2,-1.5c0,-0.2,0,-0.2,0,-0.2l0.4,-1.4l0,-0.2L336,460l0.8,-1.5l1.1,-1.3l1.3,-1.4l1.2,-1.3l1.7,-1.3l1.6,-1.1l1.9,-1.3l2.2,-1.1l2.2,-1.1l2.2,-1.1l2.5,-0.9l2.6,-0.9l2.8,-0.9l2.9,-0.9l3.1,-0.8l3.1,-0.9l3.3,-0.7l3.3,-0.6l3.5,-0.7l3.7,-0.6l3.6,-0.5l3.7,-0.4l3.9,-0.5l4,-0.4l3.8,-0.2l4.3,-0.2l4,-0.1l8.4,-0.2l8.6,0.2l4.1,0.1l4.2,0.2l3.8,0.2l4.1,0.4l3.8,0.5l3.7,0.4l3.7,0.5l3.6,0.6l3.5,0.7l3.3,0.6l3.3,0.7l3.1,0.9l3.1,0.8l2.8,0.9l2.7,0.9l2.8,0.9l2.4,0.9l2.4,1.1l2.2,1.1l2,1.1l2,1.1l1.6,1.3l1.5,1.3l1.5,1.3l1.3,1.3l0.9,1.2l0.9,1.5l0.5,1.5c0,0.2,0,0.2,0,0.2l0.4,1.4l0,0.2l0.2,1.3c0,0.2,0,0.2,0,0.2l-0.2,1.4l0,0.2l-0.4,1.3c0,0.2,0,0.2,0,0.2l-0.5,1.5l-0.7,1.2l-1.1,1.5l-1.3,1.5l-1.3,1.3l-1.7,1.1l-1.6,1.2l-1.8,1.1l-2.2,1.3l-2.2,1.1l-2.2,0.9l-2.6,1.1l-2.6,1l-2.7,0.9l-3,0.9l-3.1,0.7l-3.1,0.8l-3.3,0.7l-3.3,0.7l-3.5,0.8l-3.6,0.5l-3.7,0.6l-3.7,0.3l-3.8,0.4l-4.1,0.4l-3.8,0.3l-4.2,0.2l-4.1,0.2l-8.4,0.2l-8.4,-0.2l-4.2,-0.2l-4.1,-0.2l-4,-0.3l-4,-0.4l-3.9,-0.4l-3.7,-0.3L383,489.5L379.3,489l-3.5,-0.8l-3.3,-0.5l-3.3,-0.8L366.1,486L363,485.3l-2.8,-0.9l-2.7,-0.9l-2.8,-1l-2.3,-1.1L350,480.5l-2.2,-1.1l-2,-1.1L343.7,477l-1.6,-1.1l-1.5,-1.2l-1.4,-1.3l-1.1,-1.3L337,470.6l-0.8,-1.3l-0.7,-1.6l0,-0.2l-0.4,-1.3l0,-0.2l-0.2,-1.2Zm3.2,-0.2l0,1.5l0,-0.4l0.3,1.3l0,-0.2l0.4,1.1l0.5,1.3l1,1.1l0.9,1.1l1.3,1.1l1.4,1.1l1.5,1.1l1.8,1.1l1.9,1.1l2.2,0.9l2.2,1.1l2.3,0.9l2.6,0.9l2.6,0.9l2.9,1l2.9,0.7l3.2,0.7l3.1,0.8l3.3,0.7l3.5,0.5l3.4,0.6l3.7,0.5l3.7,0.6l3.8,0.4l3.9,0.3l4,0.2l3.9,0.4l4.2,0l8.2,0.2l8.5,-0.2l4,0l4,-0.4l4.1,-0.2l3.8,-0.3l3.9,-0.4l3.6,-0.6l3.7,-0.5l3.5,-0.6l3.5,-0.5l3.3,-0.7l3.1,-0.8l3.1,-0.7l2.9,-0.7l2.8,-1l2.7,-0.9l2.6,-0.9l2.4,-0.9l2.2,-0.9l2,-1.1l2,-1.1l1.7,-1.1l1.6,-1.1l1.5,-1.1l1.1,-1.1l1.1,-1.1l0.7,-1.1l0.7,-1.1l0.4,-1.3l0,0.2l0.4,-1.3l0,0.4l0,-1.5l0,0.4l0,-1.5l0,0.2l-0.4,-1.3l0,0.2l-0.4,-1.1l-0.5,-1.1l-0.9,-1.1L496.5,458l-1.3,-1.1l-1.5,-1.1l-1.5,-1.1l-1.8,-1.1l-1.8,-1.1l-2.2,-1.1l-2.2,-1l-2.4,-0.9l-2.6,-0.9l-2.5,-0.9l-3,-0.9l-2.9,-0.7l-3.1,-1l-3.1,-0.5l-3.3,-0.7l-3.5,-0.6l-3.5,-0.7l-3.7,-0.4L447,441.7l-3.9,-0.4l-3.8,-0.4l-3.9,-0.3l-4,-0.2l-4.2,-0.2l-16.7,0l-4.1,0.2l-4,0.2l-4,0.3l-3.9,0.4l-3.8,0.4l-3.7,0.5l-3.7,0.4l-3.4,0.5l-3.5,0.8l-3.3,0.7l-3.1,0.5l-3.2,1l-2.9,0.7l-2.7,0.9l-2.8,0.7l-2.6,1.1l-2.3,0.9l-2.2,1l-2.1,1.1l-2,0.9l-1.6,1.1l-1.7,1.1l-1.3,1.1l-1.2,1.1l-1.1,1.1l-0.8,1.1l-0.7,1.1l-0.4,1.3l0,-0.2l-0.3,1.5l0,-0.4l0,1.3Z" class="g3_1" />
<text 
x="375" 
y="472" 
textLength="86" 
class="s1_1"
>Curvature</text>

<g clip-path="url(#c5_1)">
<path d="M500.3,464.2L638,184.4l1.8,0.8L502,464.9Zm125,-271.1L639.8,183l0.8,17.4c0.1,0.5,-0.4,1.1,-1,1.1c-0.3,0,-0.9,-0.4,-0.9,-0.9L638,184.8l1.5,0.7l-13.1,9c-0.3,0.4,-0.9,0.2,-1.2,-0.2c-0.2,-0.3,-0.2,-1.1,0.1,-1.2Z" class="g3_1" />
</g>
<path d="M500.5,463.8L637.8,313.7l1.3,1.3L501.8,465.1ZM623.1,318.5l16.7,-5.6l-4,16.9c-0.2,0.6,-0.7,0.9,-1.3,0.8c-0.4,0,-0.7,-0.6,-0.5,-1.1L637.4,314l1.3,1.3l-14.8,5c-0.6,0.2,-1.1,-0.2,-1.3,-0.6c-0.2,-0.5,0.2,-1.1,0.5,-1.2Z" class="g3_1" />

<path d="M0,502
L0,0
L846,0
L846,502 z "
fill="none"
stroke-width="1.0"
stroke-linecap="butt"
stroke-linejoin="miter"
stroke="#000000" />

<!-- Any embedded fonts defined here -->
<style type="text/css" ><![CDATA[

@font-face {
	font-family: OYOIZF-Times-Roman1;
	src :url("1/fonts/OYOIZF-Times-Roman.woff") format("woff");
}

]]></style>

<title>Features_Properties_1 Page1</title>
</svg>
